<svg xmlns="http://www.w3.org/2000/svg" width="302.501" height="302.501" viewBox="0 0 302.501 302.501"><defs><style>.a{fill:#008060;}</style></defs><g transform="translate(33.081 302.501) rotate(-97)"><path class="a" d="M844.493,285.444a2.951,2.951,0,1,1,2.951-2.951A2.95,2.95,0,0,1,844.493,285.444Zm-17.7,0a2.951,2.951,0,1,1,2.951-2.951A2.95,2.95,0,0,1,826.791,285.444Zm-17.7,0a2.951,2.951,0,1,1,2.951-2.951A2.951,2.951,0,0,1,809.088,285.444Zm-17.7,0a2.951,2.951,0,1,1,2.951-2.951A2.95,2.95,0,0,1,791.385,285.444Zm-17.7,0a2.951,2.951,0,1,1,2.951-2.951A2.951,2.951,0,0,1,773.682,285.444Zm-17.7,0a2.951,2.951,0,1,1,2.951-2.951A2.95,2.95,0,0,1,755.98,285.444Zm-17.7,0a2.951,2.951,0,1,1,2.951-2.951A2.951,2.951,0,0,1,738.276,285.444Zm-17.7,0a2.951,2.951,0,1,1,2.951-2.951A2.95,2.95,0,0,1,720.574,285.444Zm123.92-17.7a2.951,2.951,0,1,1,2.951-2.951A2.951,2.951,0,0,1,844.493,267.742Zm-17.7,0a2.951,2.951,0,1,1,2.951-2.951A2.951,2.951,0,0,1,826.791,267.742Zm-17.7,0a2.951,2.951,0,1,1,2.951-2.951A2.952,2.952,0,0,1,809.088,267.742Zm-17.7,0a2.951,2.951,0,1,1,2.951-2.951A2.951,2.951,0,0,1,791.385,267.742Zm-17.7,0a2.951,2.951,0,1,1,2.951-2.951A2.952,2.952,0,0,1,773.682,267.742Zm-17.7,0a2.951,2.951,0,1,1,2.951-2.951A2.951,2.951,0,0,1,755.98,267.742Zm-17.7,0a2.951,2.951,0,1,1,2.951-2.951A2.952,2.952,0,0,1,738.276,267.742Zm-17.7,0a2.951,2.951,0,1,1,2.951-2.951A2.951,2.951,0,0,1,720.574,267.742Zm123.92-17.7a2.951,2.951,0,1,1,2.951-2.951A2.95,2.95,0,0,1,844.493,250.038Zm-17.7,0a2.951,2.951,0,1,1,2.951-2.951A2.95,2.95,0,0,1,826.791,250.038Zm-17.7,0a2.951,2.951,0,1,1,2.951-2.951A2.951,2.951,0,0,1,809.088,250.038Zm-17.7,0a2.951,2.951,0,1,1,2.951-2.951A2.95,2.95,0,0,1,791.385,250.038Zm-17.7,0a2.951,2.951,0,1,1,2.951-2.951A2.951,2.951,0,0,1,773.682,250.038Zm-17.7,0a2.951,2.951,0,1,1,2.951-2.951A2.95,2.95,0,0,1,755.98,250.038Zm-17.7,0a2.951,2.951,0,1,1,2.951-2.951A2.951,2.951,0,0,1,738.276,250.038Zm-17.7,0a2.951,2.951,0,1,1,2.951-2.951A2.95,2.95,0,0,1,720.574,250.038Zm123.92-17.7a2.951,2.951,0,1,1,2.951-2.951A2.951,2.951,0,0,1,844.493,232.336Zm-17.7,0a2.951,2.951,0,1,1,2.951-2.951A2.951,2.951,0,0,1,826.791,232.336Zm-17.7,0a2.951,2.951,0,1,1,2.951-2.951A2.952,2.952,0,0,1,809.088,232.336Zm-17.7,0a2.951,2.951,0,1,1,2.951-2.951A2.951,2.951,0,0,1,791.385,232.336Zm-17.7,0a2.951,2.951,0,1,1,2.951-2.951A2.952,2.952,0,0,1,773.682,232.336Zm-17.7,0a2.951,2.951,0,1,1,2.951-2.951A2.951,2.951,0,0,1,755.98,232.336Zm-17.7,0a2.951,2.951,0,1,1,2.951-2.951A2.952,2.952,0,0,1,738.276,232.336Zm-17.7,0a2.951,2.951,0,1,1,2.951-2.951A2.951,2.951,0,0,1,720.574,232.336Zm123.92-17.7a2.951,2.951,0,1,1,2.951-2.951A2.95,2.95,0,0,1,844.493,214.632Zm-17.7,0a2.951,2.951,0,1,1,2.951-2.951A2.95,2.95,0,0,1,826.791,214.632Zm-17.7,0a2.951,2.951,0,1,1,2.951-2.951A2.951,2.951,0,0,1,809.088,214.632Zm-17.7,0a2.951,2.951,0,1,1,2.951-2.951A2.95,2.95,0,0,1,791.385,214.632Zm-17.7,0a2.951,2.951,0,1,1,2.951-2.951A2.951,2.951,0,0,1,773.682,214.632Zm-17.7,0a2.951,2.951,0,1,1,2.951-2.951A2.95,2.95,0,0,1,755.98,214.632Zm-17.7,0a2.951,2.951,0,1,1,2.951-2.951A2.951,2.951,0,0,1,738.276,214.632Zm-17.7,0a2.951,2.951,0,1,1,2.951-2.951A2.95,2.95,0,0,1,720.574,214.632Zm123.92-17.7a2.951,2.951,0,1,1,2.951-2.951A2.951,2.951,0,0,1,844.493,196.93Zm-17.7,0a2.951,2.951,0,1,1,2.951-2.951A2.951,2.951,0,0,1,826.791,196.93Zm-17.7,0a2.951,2.951,0,1,1,2.951-2.951A2.952,2.952,0,0,1,809.088,196.93Zm-17.7,0a2.951,2.951,0,1,1,2.951-2.951A2.951,2.951,0,0,1,791.385,196.93Zm-17.7,0a2.951,2.951,0,1,1,2.951-2.951A2.952,2.952,0,0,1,773.682,196.93Zm-17.7,0a2.951,2.951,0,1,1,2.951-2.951A2.951,2.951,0,0,1,755.98,196.93Zm-17.7,0a2.951,2.951,0,1,1,2.951-2.951A2.952,2.952,0,0,1,738.276,196.93Zm-17.7,0a2.951,2.951,0,1,1,2.951-2.951A2.951,2.951,0,0,1,720.574,196.93Zm123.92-17.7a2.951,2.951,0,1,1,2.951-2.951A2.95,2.95,0,0,1,844.493,179.227Zm-17.7,0a2.951,2.951,0,1,1,2.951-2.951A2.95,2.95,0,0,1,826.791,179.227Zm-17.7,0a2.951,2.951,0,1,1,2.951-2.951A2.951,2.951,0,0,1,809.088,179.227Zm-17.7,0a2.951,2.951,0,1,1,2.951-2.951A2.95,2.95,0,0,1,791.385,179.227Zm-17.7,0a2.951,2.951,0,1,1,2.951-2.951A2.951,2.951,0,0,1,773.682,179.227Zm-17.7,0a2.951,2.951,0,1,1,2.951-2.951A2.95,2.95,0,0,1,755.98,179.227Zm-17.7,0a2.951,2.951,0,1,1,2.951-2.951A2.951,2.951,0,0,1,738.276,179.227Zm-17.7,0a2.951,2.951,0,1,1,2.951-2.951A2.95,2.95,0,0,1,720.574,179.227Zm123.92-17.7a2.951,2.951,0,1,1,2.951-2.951A2.951,2.951,0,0,1,844.493,161.524Zm-17.7,0a2.951,2.951,0,1,1,2.951-2.951A2.951,2.951,0,0,1,826.791,161.524Zm-17.7,0a2.951,2.951,0,1,1,2.951-2.951A2.952,2.952,0,0,1,809.088,161.524Zm-17.7,0a2.951,2.951,0,1,1,2.951-2.951A2.951,2.951,0,0,1,791.385,161.524Zm-17.7,0a2.951,2.951,0,1,1,2.951-2.951A2.952,2.952,0,0,1,773.682,161.524Zm-17.7,0a2.951,2.951,0,1,1,2.951-2.951A2.951,2.951,0,0,1,755.98,161.524Zm-17.7,0a2.951,2.951,0,1,1,2.951-2.951A2.952,2.952,0,0,1,738.276,161.524Zm-17.7,0a2.951,2.951,0,1,1,2.951-2.951A2.951,2.951,0,0,1,720.574,161.524Zm123.92-17.7a2.951,2.951,0,1,1,2.951-2.951A2.95,2.95,0,0,1,844.493,143.821Zm-17.7,0a2.951,2.951,0,1,1,2.951-2.951A2.95,2.95,0,0,1,826.791,143.821Zm-17.7,0a2.951,2.951,0,1,1,2.951-2.951A2.951,2.951,0,0,1,809.088,143.821Zm-17.7,0a2.951,2.951,0,1,1,2.951-2.951A2.95,2.95,0,0,1,791.385,143.821Zm-17.7,0a2.951,2.951,0,1,1,2.951-2.951A2.951,2.951,0,0,1,773.682,143.821Zm-17.7,0a2.951,2.951,0,1,1,2.951-2.951A2.95,2.95,0,0,1,755.98,143.821Zm-17.7,0a2.951,2.951,0,1,1,2.951-2.951A2.951,2.951,0,0,1,738.276,143.821Zm-17.7,0a2.951,2.951,0,1,1,2.951-2.951A2.95,2.95,0,0,1,720.574,143.821Zm123.92-17.7a2.95,2.95,0,1,1,2.951-2.95A2.95,2.95,0,0,1,844.493,126.118Zm-17.7,0a2.95,2.95,0,1,1,2.951-2.95A2.95,2.95,0,0,1,826.791,126.118Zm-17.7,0a2.95,2.95,0,1,1,2.951-2.95A2.951,2.951,0,0,1,809.088,126.118Zm-17.7,0a2.95,2.95,0,1,1,2.951-2.95A2.95,2.95,0,0,1,791.385,126.118Zm-17.7,0a2.95,2.95,0,1,1,2.951-2.95A2.951,2.951,0,0,1,773.682,126.118Zm-17.7,0a2.95,2.95,0,1,1,2.951-2.95A2.95,2.95,0,0,1,755.98,126.118Zm-17.7,0a2.95,2.95,0,1,1,2.951-2.95A2.951,2.951,0,0,1,738.276,126.118Zm-17.7,0a2.95,2.95,0,1,1,2.951-2.95A2.95,2.95,0,0,1,720.574,126.118Zm123.92-17.7a2.95,2.95,0,1,1,2.951-2.95A2.95,2.95,0,0,1,844.493,108.415Zm-17.7,0a2.95,2.95,0,1,1,2.951-2.95A2.95,2.95,0,0,1,826.791,108.415Zm-17.7,0a2.95,2.95,0,1,1,2.951-2.95A2.951,2.951,0,0,1,809.088,108.415Zm-17.7,0a2.95,2.95,0,1,1,2.951-2.95A2.95,2.95,0,0,1,791.385,108.415Zm-17.7,0a2.95,2.95,0,1,1,2.951-2.95A2.951,2.951,0,0,1,773.682,108.415Zm-17.7,0a2.95,2.95,0,1,1,2.951-2.95A2.95,2.95,0,0,1,755.98,108.415Zm-17.7,0a2.95,2.95,0,1,1,2.951-2.95A2.951,2.951,0,0,1,738.276,108.415Zm-17.7,0a2.95,2.95,0,1,1,2.951-2.95A2.95,2.95,0,0,1,720.574,108.415Zm123.92-17.7a2.95,2.95,0,1,1,2.951-2.95A2.95,2.95,0,0,1,844.493,90.712Zm-17.7,0a2.95,2.95,0,1,1,2.951-2.95A2.95,2.95,0,0,1,826.791,90.712Zm-17.7,0a2.95,2.95,0,1,1,2.951-2.95A2.951,2.951,0,0,1,809.088,90.712Zm-17.7,0a2.95,2.95,0,1,1,2.951-2.95A2.95,2.95,0,0,1,791.385,90.712Zm-17.7,0a2.95,2.95,0,1,1,2.951-2.95A2.951,2.951,0,0,1,773.682,90.712Zm-17.7,0a2.95,2.95,0,1,1,2.951-2.95A2.95,2.95,0,0,1,755.98,90.712Zm-17.7,0a2.95,2.95,0,1,1,2.951-2.95A2.951,2.951,0,0,1,738.276,90.712Zm-17.7,0a2.95,2.95,0,1,1,2.951-2.95A2.95,2.95,0,0,1,720.574,90.712Zm123.92-17.7a2.951,2.951,0,1,1,2.951-2.951A2.95,2.95,0,0,1,844.493,73.01Zm-17.7,0a2.951,2.951,0,1,1,2.951-2.951A2.95,2.95,0,0,1,826.791,73.01Zm-17.7,0a2.951,2.951,0,1,1,2.951-2.951A2.951,2.951,0,0,1,809.088,73.01Zm-17.7,0a2.951,2.951,0,1,1,2.951-2.951A2.95,2.95,0,0,1,791.385,73.01Zm-17.7,0a2.951,2.951,0,1,1,2.951-2.951A2.951,2.951,0,0,1,773.682,73.01Zm-17.7,0a2.951,2.951,0,1,1,2.951-2.951A2.95,2.95,0,0,1,755.98,73.01Zm-17.7,0a2.951,2.951,0,1,1,2.951-2.951A2.951,2.951,0,0,1,738.276,73.01Zm-17.7,0a2.951,2.951,0,1,1,2.951-2.951A2.95,2.95,0,0,1,720.574,73.01Zm123.92-17.7a2.95,2.95,0,1,1,2.951-2.95A2.95,2.95,0,0,1,844.493,55.307Zm-17.7,0a2.95,2.95,0,1,1,2.951-2.95A2.95,2.95,0,0,1,826.791,55.307Zm-17.7,0a2.95,2.95,0,1,1,2.951-2.95A2.951,2.951,0,0,1,809.088,55.307Zm-17.7,0a2.95,2.95,0,1,1,2.951-2.95A2.95,2.95,0,0,1,791.385,55.307Zm-17.7,0a2.95,2.95,0,1,1,2.951-2.95A2.951,2.951,0,0,1,773.682,55.307Zm-17.7,0a2.95,2.95,0,1,1,2.951-2.95A2.95,2.95,0,0,1,755.98,55.307Zm-17.7,0a2.95,2.95,0,1,1,2.951-2.95A2.951,2.951,0,0,1,738.276,55.307Zm-17.7,0a2.95,2.95,0,1,1,2.951-2.95A2.95,2.95,0,0,1,720.574,55.307Zm123.92-17.7a2.95,2.95,0,1,1,2.951-2.95A2.95,2.95,0,0,1,844.493,37.6Zm-17.7,0a2.95,2.95,0,1,1,2.951-2.95A2.95,2.95,0,0,1,826.791,37.6Zm-17.7,0a2.95,2.95,0,1,1,2.951-2.95A2.951,2.951,0,0,1,809.088,37.6Zm-17.7,0a2.95,2.95,0,1,1,2.951-2.95A2.95,2.95,0,0,1,791.385,37.6Zm-17.7,0a2.95,2.95,0,1,1,2.951-2.95A2.951,2.951,0,0,1,773.682,37.6Zm-17.7,0a2.95,2.95,0,1,1,2.951-2.95A2.95,2.95,0,0,1,755.98,37.6Zm-17.7,0a2.95,2.95,0,1,1,2.951-2.95A2.951,2.951,0,0,1,738.276,37.6Zm-17.7,0a2.95,2.95,0,1,1,2.951-2.95A2.95,2.95,0,0,1,720.574,37.6Zm123.92-17.7a2.95,2.95,0,1,1,2.951-2.95A2.95,2.95,0,0,1,844.493,19.9Zm-17.7,0a2.95,2.95,0,1,1,2.951-2.95A2.95,2.95,0,0,1,826.791,19.9Zm-17.7,0a2.95,2.95,0,1,1,2.951-2.95A2.951,2.951,0,0,1,809.088,19.9Zm-17.7,0a2.95,2.95,0,1,1,2.951-2.95A2.95,2.95,0,0,1,791.385,19.9Zm-17.7,0a2.95,2.95,0,1,1,2.951-2.95A2.951,2.951,0,0,1,773.682,19.9Zm-17.7,0a2.95,2.95,0,1,1,2.951-2.95A2.95,2.95,0,0,1,755.98,19.9Zm-17.7,0a2.95,2.95,0,1,1,2.951-2.95A2.951,2.951,0,0,1,738.276,19.9Zm-17.7,0a2.95,2.95,0,1,1,2.951-2.95A2.95,2.95,0,0,1,720.574,19.9Zm-17.7,265.543a2.951,2.951,0,1,1,2.951-2.951A2.951,2.951,0,0,1,702.87,285.444Zm-17.7,0a2.951,2.951,0,1,1,2.951-2.951A2.95,2.95,0,0,1,685.168,285.444Zm-17.7,0a2.951,2.951,0,1,1,2.951-2.951A2.951,2.951,0,0,1,667.464,285.444Zm-17.7,0a2.951,2.951,0,1,1,2.951-2.951A2.95,2.95,0,0,1,649.762,285.444Zm-17.7,0a2.951,2.951,0,1,1,2.951-2.951A2.951,2.951,0,0,1,632.059,285.444Zm-17.7,0a2.951,2.951,0,1,1,2.951-2.951A2.95,2.95,0,0,1,614.356,285.444Zm-17.7,0a2.951,2.951,0,1,1,2.951-2.951A2.951,2.951,0,0,1,596.653,285.444Zm-17.7,0a2.951,2.951,0,1,1,2.951-2.951A2.95,2.95,0,0,1,578.951,285.444Zm123.92-17.7a2.951,2.951,0,1,1,2.951-2.951A2.952,2.952,0,0,1,702.87,267.742Zm-17.7,0a2.951,2.951,0,1,1,2.951-2.951A2.951,2.951,0,0,1,685.168,267.742Zm-17.7,0a2.951,2.951,0,1,1,2.951-2.951A2.952,2.952,0,0,1,667.464,267.742Zm-17.7,0a2.951,2.951,0,1,1,2.951-2.951A2.951,2.951,0,0,1,649.762,267.742Zm-17.7,0a2.951,2.951,0,1,1,2.951-2.951A2.952,2.952,0,0,1,632.059,267.742Zm-17.7,0a2.951,2.951,0,1,1,2.951-2.951A2.951,2.951,0,0,1,614.356,267.742Zm-17.7,0a2.951,2.951,0,1,1,2.951-2.951A2.952,2.952,0,0,1,596.653,267.742Zm-17.7,0a2.951,2.951,0,1,1,2.951-2.951A2.951,2.951,0,0,1,578.951,267.742Zm123.92-17.7a2.951,2.951,0,1,1,2.951-2.951A2.951,2.951,0,0,1,702.87,250.038Zm-17.7,0a2.951,2.951,0,1,1,2.951-2.951A2.95,2.95,0,0,1,685.168,250.038Zm-17.7,0a2.951,2.951,0,1,1,2.951-2.951A2.951,2.951,0,0,1,667.464,250.038Zm-17.7,0a2.951,2.951,0,1,1,2.951-2.951A2.95,2.95,0,0,1,649.762,250.038Zm-17.7,0a2.951,2.951,0,1,1,2.951-2.951A2.951,2.951,0,0,1,632.059,250.038Zm-17.7,0a2.951,2.951,0,1,1,2.951-2.951A2.95,2.95,0,0,1,614.356,250.038Zm-17.7,0a2.951,2.951,0,1,1,2.951-2.951A2.951,2.951,0,0,1,596.653,250.038Zm-17.7,0a2.951,2.951,0,1,1,2.951-2.951A2.95,2.95,0,0,1,578.951,250.038Zm123.92-17.7a2.951,2.951,0,1,1,2.951-2.951A2.952,2.952,0,0,1,702.87,232.336Zm-17.7,0a2.951,2.951,0,1,1,2.951-2.951A2.951,2.951,0,0,1,685.168,232.336Zm-17.7,0a2.951,2.951,0,1,1,2.951-2.951A2.952,2.952,0,0,1,667.464,232.336Zm-17.7,0a2.951,2.951,0,1,1,2.951-2.951A2.951,2.951,0,0,1,649.762,232.336Zm-17.7,0a2.951,2.951,0,1,1,2.951-2.951A2.952,2.952,0,0,1,632.059,232.336Zm-17.7,0a2.951,2.951,0,1,1,2.951-2.951A2.951,2.951,0,0,1,614.356,232.336Zm-17.7,0a2.951,2.951,0,1,1,2.951-2.951A2.952,2.952,0,0,1,596.653,232.336Zm-17.7,0a2.951,2.951,0,1,1,2.951-2.951A2.951,2.951,0,0,1,578.951,232.336Zm123.92-17.7a2.951,2.951,0,1,1,2.951-2.951A2.951,2.951,0,0,1,702.87,214.632Zm-17.7,0a2.951,2.951,0,1,1,2.951-2.951A2.95,2.95,0,0,1,685.168,214.632Zm-17.7,0a2.951,2.951,0,1,1,2.951-2.951A2.951,2.951,0,0,1,667.464,214.632Zm-17.7,0a2.951,2.951,0,1,1,2.951-2.951A2.95,2.95,0,0,1,649.762,214.632Zm-17.7,0a2.951,2.951,0,1,1,2.951-2.951A2.951,2.951,0,0,1,632.059,214.632Zm-17.7,0a2.951,2.951,0,1,1,2.951-2.951A2.95,2.95,0,0,1,614.356,214.632Zm-17.7,0a2.951,2.951,0,1,1,2.951-2.951A2.951,2.951,0,0,1,596.653,214.632Zm-17.7,0a2.951,2.951,0,1,1,2.951-2.951A2.95,2.95,0,0,1,578.951,214.632Zm123.92-17.7a2.951,2.951,0,1,1,2.951-2.951A2.952,2.952,0,0,1,702.87,196.93Zm-17.7,0a2.951,2.951,0,1,1,2.951-2.951A2.951,2.951,0,0,1,685.168,196.93Zm-17.7,0a2.951,2.951,0,1,1,2.951-2.951A2.952,2.952,0,0,1,667.464,196.93Zm-17.7,0a2.951,2.951,0,1,1,2.951-2.951A2.951,2.951,0,0,1,649.762,196.93Zm-17.7,0a2.951,2.951,0,1,1,2.951-2.951A2.952,2.952,0,0,1,632.059,196.93Zm-17.7,0a2.951,2.951,0,1,1,2.951-2.951A2.951,2.951,0,0,1,614.356,196.93Zm-17.7,0a2.951,2.951,0,1,1,2.951-2.951A2.952,2.952,0,0,1,596.653,196.93Zm-17.7,0a2.951,2.951,0,1,1,2.951-2.951A2.951,2.951,0,0,1,578.951,196.93Zm123.92-17.7a2.951,2.951,0,1,1,2.951-2.951A2.951,2.951,0,0,1,702.87,179.227Zm-17.7,0a2.951,2.951,0,1,1,2.951-2.951A2.95,2.95,0,0,1,685.168,179.227Zm-17.7,0a2.951,2.951,0,1,1,2.951-2.951A2.951,2.951,0,0,1,667.464,179.227Zm-17.7,0a2.951,2.951,0,1,1,2.951-2.951A2.95,2.95,0,0,1,649.762,179.227Zm-17.7,0a2.951,2.951,0,1,1,2.951-2.951A2.951,2.951,0,0,1,632.059,179.227Zm-17.7,0a2.951,2.951,0,1,1,2.951-2.951A2.95,2.95,0,0,1,614.356,179.227Zm-17.7,0a2.951,2.951,0,1,1,2.951-2.951A2.951,2.951,0,0,1,596.653,179.227Zm-17.7,0a2.951,2.951,0,1,1,2.951-2.951A2.95,2.95,0,0,1,578.951,179.227Zm123.92-17.7a2.951,2.951,0,1,1,2.951-2.951A2.952,2.952,0,0,1,702.87,161.524Zm-17.7,0a2.951,2.951,0,1,1,2.951-2.951A2.951,2.951,0,0,1,685.168,161.524Zm-17.7,0a2.951,2.951,0,1,1,2.951-2.951A2.952,2.952,0,0,1,667.464,161.524Zm-17.7,0a2.951,2.951,0,1,1,2.951-2.951A2.951,2.951,0,0,1,649.762,161.524Zm-17.7,0a2.951,2.951,0,1,1,2.951-2.951A2.952,2.952,0,0,1,632.059,161.524Zm-17.7,0a2.951,2.951,0,1,1,2.951-2.951A2.951,2.951,0,0,1,614.356,161.524Zm-17.7,0a2.951,2.951,0,1,1,2.951-2.951A2.952,2.952,0,0,1,596.653,161.524Zm-17.7,0a2.951,2.951,0,1,1,2.951-2.951A2.951,2.951,0,0,1,578.951,161.524Zm123.92-17.7a2.951,2.951,0,1,1,2.951-2.951A2.951,2.951,0,0,1,702.87,143.821Zm-17.7,0a2.951,2.951,0,1,1,2.951-2.951A2.95,2.95,0,0,1,685.168,143.821Zm-17.7,0a2.951,2.951,0,1,1,2.951-2.951A2.951,2.951,0,0,1,667.464,143.821Zm-17.7,0a2.951,2.951,0,1,1,2.951-2.951A2.95,2.95,0,0,1,649.762,143.821Zm-17.7,0a2.951,2.951,0,1,1,2.951-2.951A2.951,2.951,0,0,1,632.059,143.821Zm-17.7,0a2.951,2.951,0,1,1,2.951-2.951A2.95,2.95,0,0,1,614.356,143.821Zm-17.7,0a2.951,2.951,0,1,1,2.951-2.951A2.951,2.951,0,0,1,596.653,143.821Zm-17.7,0a2.951,2.951,0,1,1,2.951-2.951A2.95,2.95,0,0,1,578.951,143.821Zm123.92-17.7a2.95,2.95,0,1,1,2.951-2.95A2.951,2.951,0,0,1,702.87,126.118Zm-17.7,0a2.95,2.95,0,1,1,2.951-2.95A2.95,2.95,0,0,1,685.168,126.118Zm-17.7,0a2.95,2.95,0,1,1,2.951-2.95A2.951,2.951,0,0,1,667.464,126.118Zm-17.7,0a2.95,2.95,0,1,1,2.951-2.95A2.95,2.95,0,0,1,649.762,126.118Zm-17.7,0a2.95,2.95,0,1,1,2.951-2.95A2.951,2.951,0,0,1,632.059,126.118Zm-17.7,0a2.95,2.95,0,1,1,2.951-2.95A2.95,2.95,0,0,1,614.356,126.118Zm-17.7,0a2.95,2.95,0,1,1,2.951-2.95A2.951,2.951,0,0,1,596.653,126.118Zm-17.7,0a2.95,2.95,0,1,1,2.951-2.95A2.95,2.95,0,0,1,578.951,126.118Zm123.92-17.7a2.95,2.95,0,1,1,2.951-2.95A2.951,2.951,0,0,1,702.87,108.415Zm-17.7,0a2.95,2.95,0,1,1,2.951-2.95A2.95,2.95,0,0,1,685.168,108.415Zm-17.7,0a2.95,2.95,0,1,1,2.951-2.95A2.951,2.951,0,0,1,667.464,108.415Zm-17.7,0a2.95,2.95,0,1,1,2.951-2.95A2.95,2.95,0,0,1,649.762,108.415Zm-17.7,0a2.95,2.95,0,1,1,2.951-2.95A2.951,2.951,0,0,1,632.059,108.415Zm-17.7,0a2.95,2.95,0,1,1,2.951-2.95A2.95,2.95,0,0,1,614.356,108.415Zm-17.7,0a2.95,2.95,0,1,1,2.951-2.95A2.951,2.951,0,0,1,596.653,108.415Zm-17.7,0a2.95,2.95,0,1,1,2.951-2.95A2.95,2.95,0,0,1,578.951,108.415Zm123.92-17.7a2.95,2.95,0,1,1,2.951-2.95A2.951,2.951,0,0,1,702.87,90.712Zm-17.7,0a2.95,2.95,0,1,1,2.951-2.95A2.95,2.95,0,0,1,685.168,90.712Zm-17.7,0a2.95,2.95,0,1,1,2.951-2.95A2.951,2.951,0,0,1,667.464,90.712Zm-17.7,0a2.95,2.95,0,1,1,2.951-2.95A2.95,2.95,0,0,1,649.762,90.712Zm-17.7,0a2.95,2.95,0,1,1,2.951-2.95A2.951,2.951,0,0,1,632.059,90.712Zm-17.7,0a2.95,2.95,0,1,1,2.951-2.95A2.95,2.95,0,0,1,614.356,90.712Zm-17.7,0a2.95,2.95,0,1,1,2.951-2.95A2.951,2.951,0,0,1,596.653,90.712Zm-17.7,0a2.95,2.95,0,1,1,2.951-2.95A2.95,2.95,0,0,1,578.951,90.712Zm123.92-17.7a2.951,2.951,0,1,1,2.951-2.951A2.951,2.951,0,0,1,702.87,73.01Zm-17.7,0a2.951,2.951,0,1,1,2.951-2.951A2.95,2.95,0,0,1,685.168,73.01Zm-17.7,0a2.951,2.951,0,1,1,2.951-2.951A2.951,2.951,0,0,1,667.464,73.01Zm-17.7,0a2.951,2.951,0,1,1,2.951-2.951A2.95,2.95,0,0,1,649.762,73.01Zm-17.7,0a2.951,2.951,0,1,1,2.951-2.951A2.951,2.951,0,0,1,632.059,73.01Zm-17.7,0a2.951,2.951,0,1,1,2.951-2.951A2.95,2.95,0,0,1,614.356,73.01Zm-17.7,0a2.951,2.951,0,1,1,2.951-2.951A2.951,2.951,0,0,1,596.653,73.01Zm-17.7,0a2.951,2.951,0,1,1,2.951-2.951A2.95,2.95,0,0,1,578.951,73.01Zm123.92-17.7a2.95,2.95,0,1,1,2.951-2.95A2.951,2.951,0,0,1,702.87,55.307Zm-17.7,0a2.95,2.95,0,1,1,2.951-2.95A2.95,2.95,0,0,1,685.168,55.307Zm-17.7,0a2.95,2.95,0,1,1,2.951-2.95A2.951,2.951,0,0,1,667.464,55.307Zm-17.7,0a2.95,2.95,0,1,1,2.951-2.95A2.95,2.95,0,0,1,649.762,55.307Zm-17.7,0a2.95,2.95,0,1,1,2.951-2.95A2.951,2.951,0,0,1,632.059,55.307Zm-17.7,0a2.95,2.95,0,1,1,2.951-2.95A2.95,2.95,0,0,1,614.356,55.307Zm-17.7,0a2.95,2.95,0,1,1,2.951-2.95A2.951,2.951,0,0,1,596.653,55.307Zm-17.7,0a2.95,2.95,0,1,1,2.951-2.95A2.95,2.95,0,0,1,578.951,55.307ZM702.87,37.6a2.95,2.95,0,1,1,2.951-2.95A2.951,2.951,0,0,1,702.87,37.6Zm-17.7,0a2.95,2.95,0,1,1,2.951-2.95A2.95,2.95,0,0,1,685.168,37.6Zm-17.7,0a2.95,2.95,0,1,1,2.951-2.95A2.951,2.951,0,0,1,667.464,37.6Zm-17.7,0a2.95,2.95,0,1,1,2.951-2.95A2.95,2.95,0,0,1,649.762,37.6Zm-17.7,0a2.95,2.95,0,1,1,2.951-2.95A2.951,2.951,0,0,1,632.059,37.6Zm-17.7,0a2.95,2.95,0,1,1,2.951-2.95A2.95,2.95,0,0,1,614.356,37.6Zm-17.7,0a2.95,2.95,0,1,1,2.951-2.95A2.951,2.951,0,0,1,596.653,37.6Zm-17.7,0a2.95,2.95,0,1,1,2.951-2.95A2.95,2.95,0,0,1,578.951,37.6ZM702.87,19.9a2.95,2.95,0,1,1,2.951-2.95A2.951,2.951,0,0,1,702.87,19.9Zm-17.7,0a2.95,2.95,0,1,1,2.951-2.95A2.95,2.95,0,0,1,685.168,19.9Zm-17.7,0a2.95,2.95,0,1,1,2.951-2.95A2.951,2.951,0,0,1,667.464,19.9Zm-17.7,0a2.95,2.95,0,1,1,2.951-2.95A2.95,2.95,0,0,1,649.762,19.9Zm-17.7,0a2.95,2.95,0,1,1,2.951-2.95A2.951,2.951,0,0,1,632.059,19.9Zm-17.7,0a2.95,2.95,0,1,1,2.951-2.95A2.95,2.95,0,0,1,614.356,19.9Zm-17.7,0a2.95,2.95,0,1,1,2.951-2.95A2.951,2.951,0,0,1,596.653,19.9Zm-17.7,0a2.95,2.95,0,1,1,2.951-2.95A2.95,2.95,0,0,1,578.951,19.9Z" transform="translate(-576 -14)"/></g></svg>