<svg xmlns="http://www.w3.org/2000/svg" width="113" height="113" viewBox="0 0 113 113"><defs><style>.a{fill:#004c3f;}</style></defs><path class="a" d="M687.772,127A1.228,1.228,0,1,1,689,125.772,1.228,1.228,0,0,1,687.772,127Zm-7.369,0a1.228,1.228,0,1,1,1.228-1.228A1.228,1.228,0,0,1,680.4,127Zm-7.37,0a1.228,1.228,0,1,1,1.228-1.228A1.228,1.228,0,0,1,673.033,127Zm-7.369,0a1.228,1.228,0,1,1,1.228-1.228A1.228,1.228,0,0,1,665.663,127Zm-7.37,0a1.228,1.228,0,1,1,1.228-1.228A1.228,1.228,0,0,1,658.293,127Zm-7.369,0a1.228,1.228,0,1,1,1.228-1.228A1.228,1.228,0,0,1,650.924,127Zm-7.37,0a1.228,1.228,0,1,1,1.228-1.228A1.229,1.229,0,0,1,643.554,127Zm-7.369,0a1.228,1.228,0,1,1,1.228-1.228A1.228,1.228,0,0,1,636.185,127Zm51.587-7.369A1.228,1.228,0,1,1,689,118.4,1.228,1.228,0,0,1,687.772,119.631Zm-7.369,0a1.228,1.228,0,1,1,1.228-1.228A1.228,1.228,0,0,1,680.4,119.631Zm-7.37,0a1.228,1.228,0,1,1,1.228-1.228A1.229,1.229,0,0,1,673.033,119.631Zm-7.369,0a1.228,1.228,0,1,1,1.228-1.228A1.228,1.228,0,0,1,665.663,119.631Zm-7.37,0a1.228,1.228,0,1,1,1.228-1.228A1.229,1.229,0,0,1,658.293,119.631Zm-7.369,0a1.228,1.228,0,1,1,1.228-1.228A1.228,1.228,0,0,1,650.924,119.631Zm-7.37,0a1.228,1.228,0,1,1,1.228-1.228A1.229,1.229,0,0,1,643.554,119.631Zm-7.369,0a1.228,1.228,0,1,1,1.228-1.228A1.228,1.228,0,0,1,636.185,119.631Zm51.587-7.37A1.228,1.228,0,1,1,689,111.033,1.228,1.228,0,0,1,687.772,112.261Zm-7.369,0a1.228,1.228,0,1,1,1.228-1.228A1.228,1.228,0,0,1,680.4,112.261Zm-7.37,0a1.228,1.228,0,1,1,1.228-1.228A1.228,1.228,0,0,1,673.033,112.261Zm-7.369,0a1.228,1.228,0,1,1,1.228-1.228A1.228,1.228,0,0,1,665.663,112.261Zm-7.37,0a1.228,1.228,0,1,1,1.228-1.228A1.228,1.228,0,0,1,658.293,112.261Zm-7.369,0a1.228,1.228,0,1,1,1.228-1.228A1.228,1.228,0,0,1,650.924,112.261Zm-7.37,0a1.228,1.228,0,1,1,1.228-1.228A1.229,1.229,0,0,1,643.554,112.261Zm-7.369,0a1.228,1.228,0,1,1,1.228-1.228A1.228,1.228,0,0,1,636.185,112.261Zm51.587-7.369A1.228,1.228,0,1,1,689,103.663,1.228,1.228,0,0,1,687.772,104.892Zm-7.369,0a1.228,1.228,0,1,1,1.228-1.228A1.228,1.228,0,0,1,680.4,104.892Zm-7.37,0a1.228,1.228,0,1,1,1.228-1.228A1.229,1.229,0,0,1,673.033,104.892Zm-7.369,0a1.228,1.228,0,1,1,1.228-1.228A1.228,1.228,0,0,1,665.663,104.892Zm-7.37,0a1.228,1.228,0,1,1,1.228-1.228A1.229,1.229,0,0,1,658.293,104.892Zm-7.369,0a1.228,1.228,0,1,1,1.228-1.228A1.228,1.228,0,0,1,650.924,104.892Zm-7.37,0a1.228,1.228,0,1,1,1.228-1.228A1.229,1.229,0,0,1,643.554,104.892Zm-7.369,0a1.228,1.228,0,1,1,1.228-1.228A1.228,1.228,0,0,1,636.185,104.892Zm51.587-7.37A1.228,1.228,0,1,1,689,96.293,1.228,1.228,0,0,1,687.772,97.522Zm-7.369,0a1.228,1.228,0,1,1,1.228-1.228A1.228,1.228,0,0,1,680.4,97.522Zm-7.37,0a1.228,1.228,0,1,1,1.228-1.228A1.228,1.228,0,0,1,673.033,97.522Zm-7.369,0a1.228,1.228,0,1,1,1.228-1.228A1.228,1.228,0,0,1,665.663,97.522Zm-7.37,0a1.228,1.228,0,1,1,1.228-1.228A1.228,1.228,0,0,1,658.293,97.522Zm-7.369,0a1.228,1.228,0,1,1,1.228-1.228A1.228,1.228,0,0,1,650.924,97.522Zm-7.37,0a1.228,1.228,0,1,1,1.228-1.228A1.229,1.229,0,0,1,643.554,97.522Zm-7.369,0a1.228,1.228,0,1,1,1.228-1.228A1.228,1.228,0,0,1,636.185,97.522Zm51.587-7.369A1.228,1.228,0,1,1,689,88.924,1.228,1.228,0,0,1,687.772,90.152Zm-7.369,0a1.228,1.228,0,1,1,1.228-1.228A1.228,1.228,0,0,1,680.4,90.152Zm-7.37,0a1.228,1.228,0,1,1,1.228-1.228A1.229,1.229,0,0,1,673.033,90.152Zm-7.369,0a1.228,1.228,0,1,1,1.228-1.228A1.228,1.228,0,0,1,665.663,90.152Zm-7.37,0a1.228,1.228,0,1,1,1.228-1.228A1.229,1.229,0,0,1,658.293,90.152Zm-7.369,0a1.228,1.228,0,1,1,1.228-1.228A1.228,1.228,0,0,1,650.924,90.152Zm-7.37,0a1.228,1.228,0,1,1,1.228-1.228A1.229,1.229,0,0,1,643.554,90.152Zm-7.369,0a1.228,1.228,0,1,1,1.228-1.228A1.228,1.228,0,0,1,636.185,90.152Zm51.587-7.37A1.228,1.228,0,1,1,689,81.554,1.228,1.228,0,0,1,687.772,82.783Zm-7.369,0a1.228,1.228,0,1,1,1.228-1.228A1.228,1.228,0,0,1,680.4,82.783Zm-7.37,0a1.228,1.228,0,1,1,1.228-1.228A1.228,1.228,0,0,1,673.033,82.783Zm-7.369,0a1.228,1.228,0,1,1,1.228-1.228A1.228,1.228,0,0,1,665.663,82.783Zm-7.37,0a1.228,1.228,0,1,1,1.228-1.228A1.228,1.228,0,0,1,658.293,82.783Zm-7.369,0a1.228,1.228,0,1,1,1.228-1.228A1.228,1.228,0,0,1,650.924,82.783Zm-7.37,0a1.228,1.228,0,1,1,1.228-1.228A1.229,1.229,0,0,1,643.554,82.783Zm-7.369,0a1.228,1.228,0,1,1,1.228-1.228A1.228,1.228,0,0,1,636.185,82.783Zm51.587-7.369A1.228,1.228,0,1,1,689,74.185,1.228,1.228,0,0,1,687.772,75.413Zm-7.369,0a1.228,1.228,0,1,1,1.228-1.228A1.228,1.228,0,0,1,680.4,75.413Zm-7.37,0a1.228,1.228,0,1,1,1.228-1.228A1.229,1.229,0,0,1,673.033,75.413Zm-7.369,0a1.228,1.228,0,1,1,1.228-1.228A1.228,1.228,0,0,1,665.663,75.413Zm-7.37,0a1.228,1.228,0,1,1,1.228-1.228A1.229,1.229,0,0,1,658.293,75.413Zm-7.369,0a1.228,1.228,0,1,1,1.228-1.228A1.228,1.228,0,0,1,650.924,75.413Zm-7.37,0a1.228,1.228,0,1,1,1.228-1.228A1.229,1.229,0,0,1,643.554,75.413Zm-7.369,0a1.228,1.228,0,1,1,1.228-1.228A1.228,1.228,0,0,1,636.185,75.413Zm51.587-7.37A1.228,1.228,0,1,1,689,66.815,1.228,1.228,0,0,1,687.772,68.043Zm-7.369,0a1.228,1.228,0,1,1,1.228-1.228A1.228,1.228,0,0,1,680.4,68.043Zm-7.37,0a1.228,1.228,0,1,1,1.228-1.228A1.228,1.228,0,0,1,673.033,68.043Zm-7.369,0a1.228,1.228,0,1,1,1.228-1.228A1.228,1.228,0,0,1,665.663,68.043Zm-7.37,0a1.228,1.228,0,1,1,1.228-1.228A1.228,1.228,0,0,1,658.293,68.043Zm-7.369,0a1.228,1.228,0,1,1,1.228-1.228A1.228,1.228,0,0,1,650.924,68.043Zm-7.37,0a1.228,1.228,0,1,1,1.228-1.228A1.229,1.229,0,0,1,643.554,68.043Zm-7.369,0a1.228,1.228,0,1,1,1.228-1.228A1.228,1.228,0,0,1,636.185,68.043Zm51.587-7.369A1.228,1.228,0,1,1,689,59.446,1.228,1.228,0,0,1,687.772,60.674Zm-7.369,0a1.228,1.228,0,1,1,1.228-1.228A1.228,1.228,0,0,1,680.4,60.674Zm-7.37,0a1.228,1.228,0,1,1,1.228-1.228A1.229,1.229,0,0,1,673.033,60.674Zm-7.369,0a1.228,1.228,0,1,1,1.228-1.228A1.228,1.228,0,0,1,665.663,60.674Zm-7.37,0a1.228,1.228,0,1,1,1.228-1.228A1.228,1.228,0,0,1,658.293,60.674Zm-7.369,0a1.228,1.228,0,1,1,1.228-1.228A1.228,1.228,0,0,1,650.924,60.674Zm-7.37,0a1.228,1.228,0,1,1,1.228-1.228A1.229,1.229,0,0,1,643.554,60.674Zm-7.369,0a1.228,1.228,0,1,1,1.228-1.228A1.228,1.228,0,0,1,636.185,60.674Zm51.587-7.37A1.228,1.228,0,1,1,689,52.076,1.228,1.228,0,0,1,687.772,53.3Zm-7.369,0a1.228,1.228,0,1,1,1.228-1.228A1.228,1.228,0,0,1,680.4,53.3Zm-7.37,0a1.228,1.228,0,1,1,1.228-1.228A1.229,1.229,0,0,1,673.033,53.3Zm-7.369,0a1.228,1.228,0,1,1,1.228-1.228A1.228,1.228,0,0,1,665.663,53.3Zm-7.37,0a1.228,1.228,0,1,1,1.228-1.228A1.228,1.228,0,0,1,658.293,53.3Zm-7.369,0a1.228,1.228,0,1,1,1.228-1.228A1.228,1.228,0,0,1,650.924,53.3Zm-7.37,0a1.228,1.228,0,1,1,1.228-1.228A1.229,1.229,0,0,1,643.554,53.3Zm-7.369,0a1.228,1.228,0,1,1,1.228-1.228A1.228,1.228,0,0,1,636.185,53.3Zm51.587-7.37A1.228,1.228,0,1,1,689,44.707,1.228,1.228,0,0,1,687.772,45.935Zm-7.369,0a1.228,1.228,0,1,1,1.228-1.228A1.228,1.228,0,0,1,680.4,45.935Zm-7.37,0a1.228,1.228,0,1,1,1.228-1.228A1.229,1.229,0,0,1,673.033,45.935Zm-7.369,0a1.228,1.228,0,1,1,1.228-1.228A1.228,1.228,0,0,1,665.663,45.935Zm-7.37,0a1.228,1.228,0,1,1,1.228-1.228A1.228,1.228,0,0,1,658.293,45.935Zm-7.369,0a1.228,1.228,0,1,1,1.228-1.228A1.228,1.228,0,0,1,650.924,45.935Zm-7.37,0a1.228,1.228,0,1,1,1.228-1.228A1.229,1.229,0,0,1,643.554,45.935Zm-7.369,0a1.228,1.228,0,1,1,1.228-1.228A1.228,1.228,0,0,1,636.185,45.935Zm51.587-7.37A1.228,1.228,0,1,1,689,37.337,1.228,1.228,0,0,1,687.772,38.565Zm-7.369,0a1.228,1.228,0,1,1,1.228-1.228A1.228,1.228,0,0,1,680.4,38.565Zm-7.37,0a1.228,1.228,0,1,1,1.228-1.228A1.229,1.229,0,0,1,673.033,38.565Zm-7.369,0a1.228,1.228,0,1,1,1.228-1.228A1.228,1.228,0,0,1,665.663,38.565Zm-7.37,0a1.228,1.228,0,1,1,1.228-1.228A1.228,1.228,0,0,1,658.293,38.565Zm-7.369,0a1.228,1.228,0,1,1,1.228-1.228A1.228,1.228,0,0,1,650.924,38.565Zm-7.37,0a1.228,1.228,0,1,1,1.228-1.228A1.229,1.229,0,0,1,643.554,38.565Zm-7.369,0a1.228,1.228,0,1,1,1.228-1.228A1.228,1.228,0,0,1,636.185,38.565Zm51.587-7.37A1.228,1.228,0,1,1,689,29.967,1.228,1.228,0,0,1,687.772,31.2Zm-7.369,0a1.228,1.228,0,1,1,1.228-1.228A1.228,1.228,0,0,1,680.4,31.2Zm-7.37,0a1.228,1.228,0,1,1,1.228-1.228A1.229,1.229,0,0,1,673.033,31.2Zm-7.369,0a1.228,1.228,0,1,1,1.228-1.228A1.228,1.228,0,0,1,665.663,31.2Zm-7.37,0a1.228,1.228,0,1,1,1.228-1.228A1.228,1.228,0,0,1,658.293,31.2Zm-7.369,0a1.228,1.228,0,1,1,1.228-1.228A1.228,1.228,0,0,1,650.924,31.2Zm-7.37,0a1.228,1.228,0,1,1,1.228-1.228A1.229,1.229,0,0,1,643.554,31.2Zm-7.369,0a1.228,1.228,0,1,1,1.228-1.228A1.228,1.228,0,0,1,636.185,31.2Zm51.587-7.37A1.228,1.228,0,1,1,689,22.6,1.228,1.228,0,0,1,687.772,23.826Zm-7.369,0a1.228,1.228,0,1,1,1.228-1.228A1.228,1.228,0,0,1,680.4,23.826Zm-7.37,0a1.228,1.228,0,1,1,1.228-1.228A1.229,1.229,0,0,1,673.033,23.826Zm-7.369,0a1.228,1.228,0,1,1,1.228-1.228A1.228,1.228,0,0,1,665.663,23.826Zm-7.37,0a1.228,1.228,0,1,1,1.228-1.228A1.228,1.228,0,0,1,658.293,23.826Zm-7.369,0a1.228,1.228,0,1,1,1.228-1.228A1.228,1.228,0,0,1,650.924,23.826Zm-7.37,0a1.228,1.228,0,1,1,1.228-1.228A1.229,1.229,0,0,1,643.554,23.826Zm-7.369,0a1.228,1.228,0,1,1,1.228-1.228A1.228,1.228,0,0,1,636.185,23.826Zm51.587-7.37A1.228,1.228,0,1,1,689,15.228,1.228,1.228,0,0,1,687.772,16.457Zm-7.369,0a1.228,1.228,0,1,1,1.228-1.228A1.228,1.228,0,0,1,680.4,16.457Zm-7.37,0a1.228,1.228,0,1,1,1.228-1.228A1.229,1.229,0,0,1,673.033,16.457Zm-7.369,0a1.228,1.228,0,1,1,1.228-1.228A1.228,1.228,0,0,1,665.663,16.457Zm-7.37,0a1.228,1.228,0,1,1,1.228-1.228A1.228,1.228,0,0,1,658.293,16.457Zm-7.369,0a1.228,1.228,0,1,1,1.228-1.228A1.228,1.228,0,0,1,650.924,16.457Zm-7.37,0a1.228,1.228,0,1,1,1.228-1.228A1.229,1.229,0,0,1,643.554,16.457Zm-7.369,0a1.228,1.228,0,1,1,1.228-1.228A1.228,1.228,0,0,1,636.185,16.457ZM628.815,127a1.228,1.228,0,1,1,1.228-1.228A1.228,1.228,0,0,1,628.815,127Zm-7.369,0a1.228,1.228,0,1,1,1.228-1.228A1.228,1.228,0,0,1,621.446,127Zm-7.37,0a1.228,1.228,0,1,1,1.228-1.228A1.228,1.228,0,0,1,614.076,127Zm-7.369,0a1.228,1.228,0,1,1,1.228-1.228A1.228,1.228,0,0,1,606.707,127Zm-7.37,0a1.228,1.228,0,1,1,1.228-1.228A1.228,1.228,0,0,1,599.337,127Zm-7.369,0a1.228,1.228,0,1,1,1.228-1.228A1.228,1.228,0,0,1,591.968,127Zm-7.37,0a1.228,1.228,0,1,1,1.228-1.228A1.228,1.228,0,0,1,584.6,127Zm-7.369,0a1.228,1.228,0,1,1,1.228-1.228A1.228,1.228,0,0,1,577.228,127Zm51.587-7.369a1.228,1.228,0,1,1,1.228-1.228A1.229,1.229,0,0,1,628.815,119.631Zm-7.369,0a1.228,1.228,0,1,1,1.228-1.228A1.228,1.228,0,0,1,621.446,119.631Zm-7.37,0A1.228,1.228,0,1,1,615.3,118.4,1.229,1.229,0,0,1,614.076,119.631Zm-7.369,0a1.228,1.228,0,1,1,1.228-1.228A1.228,1.228,0,0,1,606.707,119.631Zm-7.37,0a1.228,1.228,0,1,1,1.228-1.228A1.229,1.229,0,0,1,599.337,119.631Zm-7.369,0A1.228,1.228,0,1,1,593.2,118.4,1.228,1.228,0,0,1,591.968,119.631Zm-7.37,0a1.228,1.228,0,1,1,1.228-1.228A1.229,1.229,0,0,1,584.6,119.631Zm-7.369,0a1.228,1.228,0,1,1,1.228-1.228A1.228,1.228,0,0,1,577.228,119.631Zm51.587-7.37a1.228,1.228,0,1,1,1.228-1.228A1.228,1.228,0,0,1,628.815,112.261Zm-7.369,0a1.228,1.228,0,1,1,1.228-1.228A1.228,1.228,0,0,1,621.446,112.261Zm-7.37,0a1.228,1.228,0,1,1,1.228-1.228A1.228,1.228,0,0,1,614.076,112.261Zm-7.369,0a1.228,1.228,0,1,1,1.228-1.228A1.228,1.228,0,0,1,606.707,112.261Zm-7.37,0a1.228,1.228,0,1,1,1.228-1.228A1.228,1.228,0,0,1,599.337,112.261Zm-7.369,0a1.228,1.228,0,1,1,1.228-1.228A1.228,1.228,0,0,1,591.968,112.261Zm-7.37,0a1.228,1.228,0,1,1,1.228-1.228A1.228,1.228,0,0,1,584.6,112.261Zm-7.369,0a1.228,1.228,0,1,1,1.228-1.228A1.228,1.228,0,0,1,577.228,112.261Zm51.587-7.369a1.228,1.228,0,1,1,1.228-1.228A1.229,1.229,0,0,1,628.815,104.892Zm-7.369,0a1.228,1.228,0,1,1,1.228-1.228A1.228,1.228,0,0,1,621.446,104.892Zm-7.37,0a1.228,1.228,0,1,1,1.228-1.228A1.229,1.229,0,0,1,614.076,104.892Zm-7.369,0a1.228,1.228,0,1,1,1.228-1.228A1.228,1.228,0,0,1,606.707,104.892Zm-7.37,0a1.228,1.228,0,1,1,1.228-1.228A1.229,1.229,0,0,1,599.337,104.892Zm-7.369,0a1.228,1.228,0,1,1,1.228-1.228A1.228,1.228,0,0,1,591.968,104.892Zm-7.37,0a1.228,1.228,0,1,1,1.228-1.228A1.229,1.229,0,0,1,584.6,104.892Zm-7.369,0a1.228,1.228,0,1,1,1.228-1.228A1.228,1.228,0,0,1,577.228,104.892Zm51.587-7.37a1.228,1.228,0,1,1,1.228-1.228A1.228,1.228,0,0,1,628.815,97.522Zm-7.369,0a1.228,1.228,0,1,1,1.228-1.228A1.228,1.228,0,0,1,621.446,97.522Zm-7.37,0a1.228,1.228,0,1,1,1.228-1.228A1.228,1.228,0,0,1,614.076,97.522Zm-7.369,0a1.228,1.228,0,1,1,1.228-1.228A1.228,1.228,0,0,1,606.707,97.522Zm-7.37,0a1.228,1.228,0,1,1,1.228-1.228A1.228,1.228,0,0,1,599.337,97.522Zm-7.369,0a1.228,1.228,0,1,1,1.228-1.228A1.228,1.228,0,0,1,591.968,97.522Zm-7.37,0a1.228,1.228,0,1,1,1.228-1.228A1.228,1.228,0,0,1,584.6,97.522Zm-7.369,0a1.228,1.228,0,1,1,1.228-1.228A1.228,1.228,0,0,1,577.228,97.522Zm51.587-7.369a1.228,1.228,0,1,1,1.228-1.228A1.229,1.229,0,0,1,628.815,90.152Zm-7.369,0a1.228,1.228,0,1,1,1.228-1.228A1.228,1.228,0,0,1,621.446,90.152Zm-7.37,0a1.228,1.228,0,1,1,1.228-1.228A1.229,1.229,0,0,1,614.076,90.152Zm-7.369,0a1.228,1.228,0,1,1,1.228-1.228A1.228,1.228,0,0,1,606.707,90.152Zm-7.37,0a1.228,1.228,0,1,1,1.228-1.228A1.229,1.229,0,0,1,599.337,90.152Zm-7.369,0a1.228,1.228,0,1,1,1.228-1.228A1.228,1.228,0,0,1,591.968,90.152Zm-7.37,0a1.228,1.228,0,1,1,1.228-1.228A1.229,1.229,0,0,1,584.6,90.152Zm-7.369,0a1.228,1.228,0,1,1,1.228-1.228A1.228,1.228,0,0,1,577.228,90.152Zm51.587-7.37a1.228,1.228,0,1,1,1.228-1.228A1.228,1.228,0,0,1,628.815,82.783Zm-7.369,0a1.228,1.228,0,1,1,1.228-1.228A1.228,1.228,0,0,1,621.446,82.783Zm-7.37,0a1.228,1.228,0,1,1,1.228-1.228A1.228,1.228,0,0,1,614.076,82.783Zm-7.369,0a1.228,1.228,0,1,1,1.228-1.228A1.228,1.228,0,0,1,606.707,82.783Zm-7.37,0a1.228,1.228,0,1,1,1.228-1.228A1.228,1.228,0,0,1,599.337,82.783Zm-7.369,0a1.228,1.228,0,1,1,1.228-1.228A1.228,1.228,0,0,1,591.968,82.783Zm-7.37,0a1.228,1.228,0,1,1,1.228-1.228A1.228,1.228,0,0,1,584.6,82.783Zm-7.369,0a1.228,1.228,0,1,1,1.228-1.228A1.228,1.228,0,0,1,577.228,82.783Zm51.587-7.369a1.228,1.228,0,1,1,1.228-1.228A1.229,1.229,0,0,1,628.815,75.413Zm-7.369,0a1.228,1.228,0,1,1,1.228-1.228A1.228,1.228,0,0,1,621.446,75.413Zm-7.37,0a1.228,1.228,0,1,1,1.228-1.228A1.229,1.229,0,0,1,614.076,75.413Zm-7.369,0a1.228,1.228,0,1,1,1.228-1.228A1.228,1.228,0,0,1,606.707,75.413Zm-7.37,0a1.228,1.228,0,1,1,1.228-1.228A1.229,1.229,0,0,1,599.337,75.413Zm-7.369,0a1.228,1.228,0,1,1,1.228-1.228A1.228,1.228,0,0,1,591.968,75.413Zm-7.37,0a1.228,1.228,0,1,1,1.228-1.228A1.229,1.229,0,0,1,584.6,75.413Zm-7.369,0a1.228,1.228,0,1,1,1.228-1.228A1.228,1.228,0,0,1,577.228,75.413Zm51.587-7.37a1.228,1.228,0,1,1,1.228-1.228A1.228,1.228,0,0,1,628.815,68.043Zm-7.369,0a1.228,1.228,0,1,1,1.228-1.228A1.228,1.228,0,0,1,621.446,68.043Zm-7.37,0a1.228,1.228,0,1,1,1.228-1.228A1.228,1.228,0,0,1,614.076,68.043Zm-7.369,0a1.228,1.228,0,1,1,1.228-1.228A1.228,1.228,0,0,1,606.707,68.043Zm-7.37,0a1.228,1.228,0,1,1,1.228-1.228A1.228,1.228,0,0,1,599.337,68.043Zm-7.369,0a1.228,1.228,0,1,1,1.228-1.228A1.228,1.228,0,0,1,591.968,68.043Zm-7.37,0a1.228,1.228,0,1,1,1.228-1.228A1.228,1.228,0,0,1,584.6,68.043Zm-7.369,0a1.228,1.228,0,1,1,1.228-1.228A1.228,1.228,0,0,1,577.228,68.043Zm51.587-7.369a1.228,1.228,0,1,1,1.228-1.228A1.229,1.229,0,0,1,628.815,60.674Zm-7.369,0a1.228,1.228,0,1,1,1.228-1.228A1.228,1.228,0,0,1,621.446,60.674Zm-7.37,0a1.228,1.228,0,1,1,1.228-1.228A1.229,1.229,0,0,1,614.076,60.674Zm-7.369,0a1.228,1.228,0,1,1,1.228-1.228A1.228,1.228,0,0,1,606.707,60.674Zm-7.37,0a1.228,1.228,0,1,1,1.228-1.228A1.229,1.229,0,0,1,599.337,60.674Zm-7.369,0a1.228,1.228,0,1,1,1.228-1.228A1.228,1.228,0,0,1,591.968,60.674Zm-7.37,0a1.228,1.228,0,1,1,1.228-1.228A1.229,1.229,0,0,1,584.6,60.674Zm-7.369,0a1.228,1.228,0,1,1,1.228-1.228A1.228,1.228,0,0,1,577.228,60.674Zm51.587-7.37a1.228,1.228,0,1,1,1.228-1.228A1.229,1.229,0,0,1,628.815,53.3Zm-7.369,0a1.228,1.228,0,1,1,1.228-1.228A1.228,1.228,0,0,1,621.446,53.3Zm-7.37,0a1.228,1.228,0,1,1,1.228-1.228A1.229,1.229,0,0,1,614.076,53.3Zm-7.369,0a1.228,1.228,0,1,1,1.228-1.228A1.228,1.228,0,0,1,606.707,53.3Zm-7.37,0a1.228,1.228,0,1,1,1.228-1.228A1.229,1.229,0,0,1,599.337,53.3Zm-7.369,0a1.228,1.228,0,1,1,1.228-1.228A1.228,1.228,0,0,1,591.968,53.3Zm-7.37,0a1.228,1.228,0,1,1,1.228-1.228A1.229,1.229,0,0,1,584.6,53.3Zm-7.369,0a1.228,1.228,0,1,1,1.228-1.228A1.228,1.228,0,0,1,577.228,53.3Zm51.587-7.37a1.228,1.228,0,1,1,1.228-1.228A1.229,1.229,0,0,1,628.815,45.935Zm-7.369,0a1.228,1.228,0,1,1,1.228-1.228A1.228,1.228,0,0,1,621.446,45.935Zm-7.37,0a1.228,1.228,0,1,1,1.228-1.228A1.229,1.229,0,0,1,614.076,45.935Zm-7.369,0a1.228,1.228,0,1,1,1.228-1.228A1.228,1.228,0,0,1,606.707,45.935Zm-7.37,0a1.228,1.228,0,1,1,1.228-1.228A1.229,1.229,0,0,1,599.337,45.935Zm-7.369,0a1.228,1.228,0,1,1,1.228-1.228A1.228,1.228,0,0,1,591.968,45.935Zm-7.37,0a1.228,1.228,0,1,1,1.228-1.228A1.229,1.229,0,0,1,584.6,45.935Zm-7.369,0a1.228,1.228,0,1,1,1.228-1.228A1.228,1.228,0,0,1,577.228,45.935Zm51.587-7.37a1.228,1.228,0,1,1,1.228-1.228A1.229,1.229,0,0,1,628.815,38.565Zm-7.369,0a1.228,1.228,0,1,1,1.228-1.228A1.228,1.228,0,0,1,621.446,38.565Zm-7.37,0a1.228,1.228,0,1,1,1.228-1.228A1.229,1.229,0,0,1,614.076,38.565Zm-7.369,0a1.228,1.228,0,1,1,1.228-1.228A1.228,1.228,0,0,1,606.707,38.565Zm-7.37,0a1.228,1.228,0,1,1,1.228-1.228A1.229,1.229,0,0,1,599.337,38.565Zm-7.369,0a1.228,1.228,0,1,1,1.228-1.228A1.228,1.228,0,0,1,591.968,38.565Zm-7.37,0a1.228,1.228,0,1,1,1.228-1.228A1.229,1.229,0,0,1,584.6,38.565Zm-7.369,0a1.228,1.228,0,1,1,1.228-1.228A1.228,1.228,0,0,1,577.228,38.565Zm51.587-7.37a1.228,1.228,0,1,1,1.228-1.228A1.229,1.229,0,0,1,628.815,31.2Zm-7.369,0a1.228,1.228,0,1,1,1.228-1.228A1.228,1.228,0,0,1,621.446,31.2Zm-7.37,0a1.228,1.228,0,1,1,1.228-1.228A1.229,1.229,0,0,1,614.076,31.2Zm-7.369,0a1.228,1.228,0,1,1,1.228-1.228A1.228,1.228,0,0,1,606.707,31.2Zm-7.37,0a1.228,1.228,0,1,1,1.228-1.228A1.229,1.229,0,0,1,599.337,31.2Zm-7.369,0a1.228,1.228,0,1,1,1.228-1.228A1.228,1.228,0,0,1,591.968,31.2Zm-7.37,0a1.228,1.228,0,1,1,1.228-1.228A1.229,1.229,0,0,1,584.6,31.2Zm-7.369,0a1.228,1.228,0,1,1,1.228-1.228A1.228,1.228,0,0,1,577.228,31.2Zm51.587-7.37a1.228,1.228,0,1,1,1.228-1.228A1.229,1.229,0,0,1,628.815,23.826Zm-7.369,0a1.228,1.228,0,1,1,1.228-1.228A1.228,1.228,0,0,1,621.446,23.826Zm-7.37,0A1.228,1.228,0,1,1,615.3,22.6,1.229,1.229,0,0,1,614.076,23.826Zm-7.369,0a1.228,1.228,0,1,1,1.228-1.228A1.228,1.228,0,0,1,606.707,23.826Zm-7.37,0a1.228,1.228,0,1,1,1.228-1.228A1.229,1.229,0,0,1,599.337,23.826Zm-7.369,0A1.228,1.228,0,1,1,593.2,22.6,1.228,1.228,0,0,1,591.968,23.826Zm-7.37,0a1.228,1.228,0,1,1,1.228-1.228A1.229,1.229,0,0,1,584.6,23.826Zm-7.369,0a1.228,1.228,0,1,1,1.228-1.228A1.228,1.228,0,0,1,577.228,23.826Zm51.587-7.37a1.228,1.228,0,1,1,1.228-1.228A1.229,1.229,0,0,1,628.815,16.457Zm-7.369,0a1.228,1.228,0,1,1,1.228-1.228A1.228,1.228,0,0,1,621.446,16.457Zm-7.37,0a1.228,1.228,0,1,1,1.228-1.228A1.229,1.229,0,0,1,614.076,16.457Zm-7.369,0a1.228,1.228,0,1,1,1.228-1.228A1.228,1.228,0,0,1,606.707,16.457Zm-7.37,0a1.228,1.228,0,1,1,1.228-1.228A1.229,1.229,0,0,1,599.337,16.457Zm-7.369,0a1.228,1.228,0,1,1,1.228-1.228A1.228,1.228,0,0,1,591.968,16.457Zm-7.37,0a1.228,1.228,0,1,1,1.228-1.228A1.229,1.229,0,0,1,584.6,16.457Zm-7.369,0a1.228,1.228,0,1,1,1.228-1.228A1.228,1.228,0,0,1,577.228,16.457Z" transform="translate(-576 -14)"/></svg>