<svg xmlns="http://www.w3.org/2000/svg" width="282.455" height="282.455" viewBox="0 0 282.455 282.455"><defs><style>.a{fill:#008060;}</style></defs><g transform="translate(0 133.826) rotate(-42)"><g transform="translate(-576 -14)"><path class="a" d="M773.826,214A2.174,2.174,0,1,1,776,211.826,2.174,2.174,0,0,1,773.826,214Zm-13.043,0a2.174,2.174,0,1,1,2.174-2.174A2.174,2.174,0,0,1,760.783,214Zm-13.044,0a2.174,2.174,0,1,1,2.174-2.174A2.174,2.174,0,0,1,747.739,214ZM734.7,214a2.174,2.174,0,1,1,2.174-2.174A2.174,2.174,0,0,1,734.7,214Zm-13.044,0a2.174,2.174,0,1,1,2.174-2.174A2.174,2.174,0,0,1,721.652,214Zm-13.043,0a2.174,2.174,0,1,1,2.174-2.174A2.174,2.174,0,0,1,708.609,214Zm-13.044,0a2.174,2.174,0,1,1,2.174-2.174A2.174,2.174,0,0,1,695.565,214Zm-13.043,0a2.174,2.174,0,1,1,2.174-2.174A2.174,2.174,0,0,1,682.522,214Zm91.3-13.043A2.174,2.174,0,1,1,776,198.783,2.174,2.174,0,0,1,773.826,200.957Zm-13.043,0a2.174,2.174,0,1,1,2.174-2.174A2.174,2.174,0,0,1,760.783,200.957Zm-13.044,0a2.174,2.174,0,1,1,2.174-2.174A2.175,2.175,0,0,1,747.739,200.957Zm-13.043,0a2.174,2.174,0,1,1,2.174-2.174A2.174,2.174,0,0,1,734.7,200.957Zm-13.044,0a2.174,2.174,0,1,1,2.174-2.174A2.175,2.175,0,0,1,721.652,200.957Zm-13.043,0a2.174,2.174,0,1,1,2.174-2.174A2.174,2.174,0,0,1,708.609,200.957Zm-13.044,0a2.174,2.174,0,1,1,2.174-2.174A2.175,2.175,0,0,1,695.565,200.957Zm-13.043,0a2.174,2.174,0,1,1,2.174-2.174A2.174,2.174,0,0,1,682.522,200.957Zm91.3-13.044A2.174,2.174,0,1,1,776,185.739,2.174,2.174,0,0,1,773.826,187.913Zm-13.043,0a2.174,2.174,0,1,1,2.174-2.174A2.174,2.174,0,0,1,760.783,187.913Zm-13.044,0a2.174,2.174,0,1,1,2.174-2.174A2.174,2.174,0,0,1,747.739,187.913Zm-13.043,0a2.174,2.174,0,1,1,2.174-2.174A2.174,2.174,0,0,1,734.7,187.913Zm-13.044,0a2.174,2.174,0,1,1,2.174-2.174A2.174,2.174,0,0,1,721.652,187.913Zm-13.043,0a2.174,2.174,0,1,1,2.174-2.174A2.174,2.174,0,0,1,708.609,187.913Zm-13.044,0a2.174,2.174,0,1,1,2.174-2.174A2.174,2.174,0,0,1,695.565,187.913Zm-13.043,0a2.174,2.174,0,1,1,2.174-2.174A2.174,2.174,0,0,1,682.522,187.913Zm91.3-13.043A2.174,2.174,0,1,1,776,172.7,2.174,2.174,0,0,1,773.826,174.87Zm-13.043,0a2.174,2.174,0,1,1,2.174-2.174A2.174,2.174,0,0,1,760.783,174.87Zm-13.044,0a2.174,2.174,0,1,1,2.174-2.174A2.175,2.175,0,0,1,747.739,174.87Zm-13.043,0a2.174,2.174,0,1,1,2.174-2.174A2.174,2.174,0,0,1,734.7,174.87Zm-13.044,0a2.174,2.174,0,1,1,2.174-2.174A2.175,2.175,0,0,1,721.652,174.87Zm-13.043,0a2.174,2.174,0,1,1,2.174-2.174A2.174,2.174,0,0,1,708.609,174.87Zm-13.044,0a2.174,2.174,0,1,1,2.174-2.174A2.175,2.175,0,0,1,695.565,174.87Zm-13.043,0A2.174,2.174,0,1,1,684.7,172.7,2.174,2.174,0,0,1,682.522,174.87Zm91.3-13.044A2.174,2.174,0,1,1,776,159.652,2.174,2.174,0,0,1,773.826,161.826Zm-13.043,0a2.174,2.174,0,1,1,2.174-2.174A2.174,2.174,0,0,1,760.783,161.826Zm-13.044,0a2.174,2.174,0,1,1,2.174-2.174A2.174,2.174,0,0,1,747.739,161.826Zm-13.043,0a2.174,2.174,0,1,1,2.174-2.174A2.174,2.174,0,0,1,734.7,161.826Zm-13.044,0a2.174,2.174,0,1,1,2.174-2.174A2.174,2.174,0,0,1,721.652,161.826Zm-13.043,0a2.174,2.174,0,1,1,2.174-2.174A2.174,2.174,0,0,1,708.609,161.826Zm-13.044,0a2.174,2.174,0,1,1,2.174-2.174A2.174,2.174,0,0,1,695.565,161.826Zm-13.043,0a2.174,2.174,0,1,1,2.174-2.174A2.174,2.174,0,0,1,682.522,161.826Zm91.3-13.043A2.174,2.174,0,1,1,776,146.609,2.174,2.174,0,0,1,773.826,148.783Zm-13.043,0a2.174,2.174,0,1,1,2.174-2.174A2.174,2.174,0,0,1,760.783,148.783Zm-13.044,0a2.174,2.174,0,1,1,2.174-2.174A2.175,2.175,0,0,1,747.739,148.783Zm-13.043,0a2.174,2.174,0,1,1,2.174-2.174A2.174,2.174,0,0,1,734.7,148.783Zm-13.044,0a2.174,2.174,0,1,1,2.174-2.174A2.175,2.175,0,0,1,721.652,148.783Zm-13.043,0a2.174,2.174,0,1,1,2.174-2.174A2.174,2.174,0,0,1,708.609,148.783Zm-13.044,0a2.174,2.174,0,1,1,2.174-2.174A2.175,2.175,0,0,1,695.565,148.783Zm-13.043,0a2.174,2.174,0,1,1,2.174-2.174A2.174,2.174,0,0,1,682.522,148.783Zm91.3-13.044A2.174,2.174,0,1,1,776,133.565,2.174,2.174,0,0,1,773.826,135.739Zm-13.043,0a2.174,2.174,0,1,1,2.174-2.174A2.174,2.174,0,0,1,760.783,135.739Zm-13.044,0a2.174,2.174,0,1,1,2.174-2.174A2.174,2.174,0,0,1,747.739,135.739Zm-13.043,0a2.174,2.174,0,1,1,2.174-2.174A2.174,2.174,0,0,1,734.7,135.739Zm-13.044,0a2.174,2.174,0,1,1,2.174-2.174A2.174,2.174,0,0,1,721.652,135.739Zm-13.043,0a2.174,2.174,0,1,1,2.174-2.174A2.174,2.174,0,0,1,708.609,135.739Zm-13.044,0a2.174,2.174,0,1,1,2.174-2.174A2.174,2.174,0,0,1,695.565,135.739Zm-13.043,0a2.174,2.174,0,1,1,2.174-2.174A2.174,2.174,0,0,1,682.522,135.739Zm91.3-13.043A2.174,2.174,0,1,1,776,120.522,2.174,2.174,0,0,1,773.826,122.7Zm-13.043,0a2.174,2.174,0,1,1,2.174-2.174A2.174,2.174,0,0,1,760.783,122.7Zm-13.044,0a2.174,2.174,0,1,1,2.174-2.174A2.175,2.175,0,0,1,747.739,122.7Zm-13.043,0a2.174,2.174,0,1,1,2.174-2.174A2.174,2.174,0,0,1,734.7,122.7Zm-13.044,0a2.174,2.174,0,1,1,2.174-2.174A2.175,2.175,0,0,1,721.652,122.7Zm-13.043,0a2.174,2.174,0,1,1,2.174-2.174A2.174,2.174,0,0,1,708.609,122.7Zm-13.044,0a2.174,2.174,0,1,1,2.174-2.174A2.175,2.175,0,0,1,695.565,122.7Zm-13.043,0a2.174,2.174,0,1,1,2.174-2.174A2.174,2.174,0,0,1,682.522,122.7Zm91.3-13.044A2.174,2.174,0,1,1,776,107.478,2.174,2.174,0,0,1,773.826,109.652Zm-13.043,0a2.174,2.174,0,1,1,2.174-2.174A2.174,2.174,0,0,1,760.783,109.652Zm-13.044,0a2.174,2.174,0,1,1,2.174-2.174A2.174,2.174,0,0,1,747.739,109.652Zm-13.043,0a2.174,2.174,0,1,1,2.174-2.174A2.174,2.174,0,0,1,734.7,109.652Zm-13.044,0a2.174,2.174,0,1,1,2.174-2.174A2.174,2.174,0,0,1,721.652,109.652Zm-13.043,0a2.174,2.174,0,1,1,2.174-2.174A2.174,2.174,0,0,1,708.609,109.652Zm-13.044,0a2.174,2.174,0,1,1,2.174-2.174A2.174,2.174,0,0,1,695.565,109.652Zm-13.043,0a2.174,2.174,0,1,1,2.174-2.174A2.174,2.174,0,0,1,682.522,109.652Zm91.3-13.043A2.174,2.174,0,1,1,776,94.435,2.174,2.174,0,0,1,773.826,96.609Zm-13.043,0a2.174,2.174,0,1,1,2.174-2.174A2.174,2.174,0,0,1,760.783,96.609Zm-13.044,0a2.174,2.174,0,1,1,2.174-2.174A2.174,2.174,0,0,1,747.739,96.609Zm-13.043,0a2.174,2.174,0,1,1,2.174-2.174A2.174,2.174,0,0,1,734.7,96.609Zm-13.044,0a2.174,2.174,0,1,1,2.174-2.174A2.174,2.174,0,0,1,721.652,96.609Zm-13.043,0a2.174,2.174,0,1,1,2.174-2.174A2.174,2.174,0,0,1,708.609,96.609Zm-13.044,0a2.174,2.174,0,1,1,2.174-2.174A2.174,2.174,0,0,1,695.565,96.609Zm-13.043,0a2.174,2.174,0,1,1,2.174-2.174A2.174,2.174,0,0,1,682.522,96.609Zm91.3-13.044A2.174,2.174,0,1,1,776,81.391,2.174,2.174,0,0,1,773.826,83.565Zm-13.043,0a2.174,2.174,0,1,1,2.174-2.174A2.174,2.174,0,0,1,760.783,83.565Zm-13.044,0a2.174,2.174,0,1,1,2.174-2.174A2.174,2.174,0,0,1,747.739,83.565Zm-13.043,0a2.174,2.174,0,1,1,2.174-2.174A2.174,2.174,0,0,1,734.7,83.565Zm-13.044,0a2.174,2.174,0,1,1,2.174-2.174A2.174,2.174,0,0,1,721.652,83.565Zm-13.043,0a2.174,2.174,0,1,1,2.174-2.174A2.174,2.174,0,0,1,708.609,83.565Zm-13.044,0a2.174,2.174,0,1,1,2.174-2.174A2.174,2.174,0,0,1,695.565,83.565Zm-13.043,0a2.174,2.174,0,1,1,2.174-2.174A2.174,2.174,0,0,1,682.522,83.565Zm91.3-13.044A2.174,2.174,0,1,1,776,68.348,2.174,2.174,0,0,1,773.826,70.522Zm-13.043,0a2.174,2.174,0,1,1,2.174-2.174A2.174,2.174,0,0,1,760.783,70.522Zm-13.044,0a2.174,2.174,0,1,1,2.174-2.174A2.174,2.174,0,0,1,747.739,70.522Zm-13.043,0a2.174,2.174,0,1,1,2.174-2.174A2.174,2.174,0,0,1,734.7,70.522Zm-13.044,0a2.174,2.174,0,1,1,2.174-2.174A2.174,2.174,0,0,1,721.652,70.522Zm-13.043,0a2.174,2.174,0,1,1,2.174-2.174A2.174,2.174,0,0,1,708.609,70.522Zm-13.044,0a2.174,2.174,0,1,1,2.174-2.174A2.174,2.174,0,0,1,695.565,70.522Zm-13.043,0a2.174,2.174,0,1,1,2.174-2.174A2.174,2.174,0,0,1,682.522,70.522Zm91.3-13.043A2.174,2.174,0,1,1,776,55.3,2.174,2.174,0,0,1,773.826,57.478Zm-13.043,0a2.174,2.174,0,1,1,2.174-2.174A2.174,2.174,0,0,1,760.783,57.478Zm-13.044,0a2.174,2.174,0,1,1,2.174-2.174A2.174,2.174,0,0,1,747.739,57.478Zm-13.043,0A2.174,2.174,0,1,1,736.87,55.3,2.174,2.174,0,0,1,734.7,57.478Zm-13.044,0a2.174,2.174,0,1,1,2.174-2.174A2.174,2.174,0,0,1,721.652,57.478Zm-13.043,0a2.174,2.174,0,1,1,2.174-2.174A2.174,2.174,0,0,1,708.609,57.478Zm-13.044,0a2.174,2.174,0,1,1,2.174-2.174A2.174,2.174,0,0,1,695.565,57.478Zm-13.043,0A2.174,2.174,0,1,1,684.7,55.3,2.174,2.174,0,0,1,682.522,57.478Zm91.3-13.043A2.174,2.174,0,1,1,776,42.261,2.174,2.174,0,0,1,773.826,44.435Zm-13.043,0a2.174,2.174,0,1,1,2.174-2.174A2.174,2.174,0,0,1,760.783,44.435Zm-13.044,0a2.174,2.174,0,1,1,2.174-2.174A2.174,2.174,0,0,1,747.739,44.435Zm-13.043,0a2.174,2.174,0,1,1,2.174-2.174A2.174,2.174,0,0,1,734.7,44.435Zm-13.044,0a2.174,2.174,0,1,1,2.174-2.174A2.174,2.174,0,0,1,721.652,44.435Zm-13.043,0a2.174,2.174,0,1,1,2.174-2.174A2.174,2.174,0,0,1,708.609,44.435Zm-13.044,0a2.174,2.174,0,1,1,2.174-2.174A2.174,2.174,0,0,1,695.565,44.435Zm-13.043,0a2.174,2.174,0,1,1,2.174-2.174A2.174,2.174,0,0,1,682.522,44.435Zm91.3-13.043A2.174,2.174,0,1,1,776,29.217,2.174,2.174,0,0,1,773.826,31.391Zm-13.043,0a2.174,2.174,0,1,1,2.174-2.174A2.174,2.174,0,0,1,760.783,31.391Zm-13.044,0a2.174,2.174,0,1,1,2.174-2.174A2.174,2.174,0,0,1,747.739,31.391Zm-13.043,0a2.174,2.174,0,1,1,2.174-2.174A2.174,2.174,0,0,1,734.7,31.391Zm-13.044,0a2.174,2.174,0,1,1,2.174-2.174A2.174,2.174,0,0,1,721.652,31.391Zm-13.043,0a2.174,2.174,0,1,1,2.174-2.174A2.174,2.174,0,0,1,708.609,31.391Zm-13.044,0a2.174,2.174,0,1,1,2.174-2.174A2.174,2.174,0,0,1,695.565,31.391Zm-13.043,0a2.174,2.174,0,1,1,2.174-2.174A2.174,2.174,0,0,1,682.522,31.391Zm91.3-13.044A2.174,2.174,0,1,1,776,16.174,2.174,2.174,0,0,1,773.826,18.348Zm-13.043,0a2.174,2.174,0,1,1,2.174-2.174A2.174,2.174,0,0,1,760.783,18.348Zm-13.044,0a2.174,2.174,0,1,1,2.174-2.174A2.174,2.174,0,0,1,747.739,18.348Zm-13.043,0a2.174,2.174,0,1,1,2.174-2.174A2.174,2.174,0,0,1,734.7,18.348Zm-13.044,0a2.174,2.174,0,1,1,2.174-2.174A2.174,2.174,0,0,1,721.652,18.348Zm-13.043,0a2.174,2.174,0,1,1,2.174-2.174A2.174,2.174,0,0,1,708.609,18.348Zm-13.044,0a2.174,2.174,0,1,1,2.174-2.174A2.174,2.174,0,0,1,695.565,18.348Zm-13.043,0a2.174,2.174,0,1,1,2.174-2.174A2.174,2.174,0,0,1,682.522,18.348ZM669.478,214a2.174,2.174,0,1,1,2.174-2.174A2.174,2.174,0,0,1,669.478,214Zm-13.043,0a2.174,2.174,0,1,1,2.174-2.174A2.174,2.174,0,0,1,656.435,214Zm-13.044,0a2.174,2.174,0,1,1,2.174-2.174A2.174,2.174,0,0,1,643.391,214Zm-13.043,0a2.174,2.174,0,1,1,2.174-2.174A2.174,2.174,0,0,1,630.348,214ZM617.3,214a2.174,2.174,0,1,1,2.174-2.174A2.174,2.174,0,0,1,617.3,214Zm-13.043,0a2.174,2.174,0,1,1,2.174-2.174A2.174,2.174,0,0,1,604.261,214Zm-13.044,0a2.174,2.174,0,1,1,2.174-2.174A2.174,2.174,0,0,1,591.217,214Zm-13.043,0a2.174,2.174,0,1,1,2.174-2.174A2.174,2.174,0,0,1,578.174,214Zm91.3-13.043a2.174,2.174,0,1,1,2.174-2.174A2.175,2.175,0,0,1,669.478,200.957Zm-13.043,0a2.174,2.174,0,1,1,2.174-2.174A2.174,2.174,0,0,1,656.435,200.957Zm-13.044,0a2.174,2.174,0,1,1,2.174-2.174A2.175,2.175,0,0,1,643.391,200.957Zm-13.043,0a2.174,2.174,0,1,1,2.174-2.174A2.174,2.174,0,0,1,630.348,200.957Zm-13.044,0a2.174,2.174,0,1,1,2.174-2.174A2.175,2.175,0,0,1,617.3,200.957Zm-13.043,0a2.174,2.174,0,1,1,2.174-2.174A2.174,2.174,0,0,1,604.261,200.957Zm-13.044,0a2.174,2.174,0,1,1,2.174-2.174A2.175,2.175,0,0,1,591.217,200.957Zm-13.043,0a2.174,2.174,0,1,1,2.174-2.174A2.174,2.174,0,0,1,578.174,200.957Zm91.3-13.044a2.174,2.174,0,1,1,2.174-2.174A2.174,2.174,0,0,1,669.478,187.913Zm-13.043,0a2.174,2.174,0,1,1,2.174-2.174A2.174,2.174,0,0,1,656.435,187.913Zm-13.044,0a2.174,2.174,0,1,1,2.174-2.174A2.174,2.174,0,0,1,643.391,187.913Zm-13.043,0a2.174,2.174,0,1,1,2.174-2.174A2.174,2.174,0,0,1,630.348,187.913Zm-13.044,0a2.174,2.174,0,1,1,2.174-2.174A2.174,2.174,0,0,1,617.3,187.913Zm-13.043,0a2.174,2.174,0,1,1,2.174-2.174A2.174,2.174,0,0,1,604.261,187.913Zm-13.044,0a2.174,2.174,0,1,1,2.174-2.174A2.174,2.174,0,0,1,591.217,187.913Zm-13.043,0a2.174,2.174,0,1,1,2.174-2.174A2.174,2.174,0,0,1,578.174,187.913Zm91.3-13.043a2.174,2.174,0,1,1,2.174-2.174A2.175,2.175,0,0,1,669.478,174.87Zm-13.043,0a2.174,2.174,0,1,1,2.174-2.174A2.174,2.174,0,0,1,656.435,174.87Zm-13.044,0a2.174,2.174,0,1,1,2.174-2.174A2.175,2.175,0,0,1,643.391,174.87Zm-13.043,0a2.174,2.174,0,1,1,2.174-2.174A2.174,2.174,0,0,1,630.348,174.87Zm-13.044,0a2.174,2.174,0,1,1,2.174-2.174A2.175,2.175,0,0,1,617.3,174.87Zm-13.043,0a2.174,2.174,0,1,1,2.174-2.174A2.174,2.174,0,0,1,604.261,174.87Zm-13.044,0a2.174,2.174,0,1,1,2.174-2.174A2.175,2.175,0,0,1,591.217,174.87Zm-13.043,0a2.174,2.174,0,1,1,2.174-2.174A2.174,2.174,0,0,1,578.174,174.87Zm91.3-13.044a2.174,2.174,0,1,1,2.174-2.174A2.174,2.174,0,0,1,669.478,161.826Zm-13.043,0a2.174,2.174,0,1,1,2.174-2.174A2.174,2.174,0,0,1,656.435,161.826Zm-13.044,0a2.174,2.174,0,1,1,2.174-2.174A2.174,2.174,0,0,1,643.391,161.826Zm-13.043,0a2.174,2.174,0,1,1,2.174-2.174A2.174,2.174,0,0,1,630.348,161.826Zm-13.044,0a2.174,2.174,0,1,1,2.174-2.174A2.174,2.174,0,0,1,617.3,161.826Zm-13.043,0a2.174,2.174,0,1,1,2.174-2.174A2.174,2.174,0,0,1,604.261,161.826Zm-13.044,0a2.174,2.174,0,1,1,2.174-2.174A2.174,2.174,0,0,1,591.217,161.826Zm-13.043,0a2.174,2.174,0,1,1,2.174-2.174A2.174,2.174,0,0,1,578.174,161.826Zm91.3-13.043a2.174,2.174,0,1,1,2.174-2.174A2.175,2.175,0,0,1,669.478,148.783Zm-13.043,0a2.174,2.174,0,1,1,2.174-2.174A2.174,2.174,0,0,1,656.435,148.783Zm-13.044,0a2.174,2.174,0,1,1,2.174-2.174A2.175,2.175,0,0,1,643.391,148.783Zm-13.043,0a2.174,2.174,0,1,1,2.174-2.174A2.174,2.174,0,0,1,630.348,148.783Zm-13.044,0a2.174,2.174,0,1,1,2.174-2.174A2.175,2.175,0,0,1,617.3,148.783Zm-13.043,0a2.174,2.174,0,1,1,2.174-2.174A2.174,2.174,0,0,1,604.261,148.783Zm-13.044,0a2.174,2.174,0,1,1,2.174-2.174A2.175,2.175,0,0,1,591.217,148.783Zm-13.043,0a2.174,2.174,0,1,1,2.174-2.174A2.174,2.174,0,0,1,578.174,148.783Zm91.3-13.044a2.174,2.174,0,1,1,2.174-2.174A2.174,2.174,0,0,1,669.478,135.739Zm-13.043,0a2.174,2.174,0,1,1,2.174-2.174A2.174,2.174,0,0,1,656.435,135.739Zm-13.044,0a2.174,2.174,0,1,1,2.174-2.174A2.174,2.174,0,0,1,643.391,135.739Zm-13.043,0a2.174,2.174,0,1,1,2.174-2.174A2.174,2.174,0,0,1,630.348,135.739Zm-13.044,0a2.174,2.174,0,1,1,2.174-2.174A2.174,2.174,0,0,1,617.3,135.739Zm-13.043,0a2.174,2.174,0,1,1,2.174-2.174A2.174,2.174,0,0,1,604.261,135.739Zm-13.044,0a2.174,2.174,0,1,1,2.174-2.174A2.174,2.174,0,0,1,591.217,135.739Zm-13.043,0a2.174,2.174,0,1,1,2.174-2.174A2.174,2.174,0,0,1,578.174,135.739Zm91.3-13.043a2.174,2.174,0,1,1,2.174-2.174A2.175,2.175,0,0,1,669.478,122.7Zm-13.043,0a2.174,2.174,0,1,1,2.174-2.174A2.174,2.174,0,0,1,656.435,122.7Zm-13.044,0a2.174,2.174,0,1,1,2.174-2.174A2.175,2.175,0,0,1,643.391,122.7Zm-13.043,0a2.174,2.174,0,1,1,2.174-2.174A2.174,2.174,0,0,1,630.348,122.7Zm-13.044,0a2.174,2.174,0,1,1,2.174-2.174A2.175,2.175,0,0,1,617.3,122.7Zm-13.043,0a2.174,2.174,0,1,1,2.174-2.174A2.174,2.174,0,0,1,604.261,122.7Zm-13.044,0a2.174,2.174,0,1,1,2.174-2.174A2.175,2.175,0,0,1,591.217,122.7Zm-13.043,0a2.174,2.174,0,1,1,2.174-2.174A2.174,2.174,0,0,1,578.174,122.7Zm91.3-13.044a2.174,2.174,0,1,1,2.174-2.174A2.174,2.174,0,0,1,669.478,109.652Zm-13.043,0a2.174,2.174,0,1,1,2.174-2.174A2.174,2.174,0,0,1,656.435,109.652Zm-13.044,0a2.174,2.174,0,1,1,2.174-2.174A2.174,2.174,0,0,1,643.391,109.652Zm-13.043,0a2.174,2.174,0,1,1,2.174-2.174A2.174,2.174,0,0,1,630.348,109.652Zm-13.044,0a2.174,2.174,0,1,1,2.174-2.174A2.174,2.174,0,0,1,617.3,109.652Zm-13.043,0a2.174,2.174,0,1,1,2.174-2.174A2.174,2.174,0,0,1,604.261,109.652Zm-13.044,0a2.174,2.174,0,1,1,2.174-2.174A2.174,2.174,0,0,1,591.217,109.652Zm-13.043,0a2.174,2.174,0,1,1,2.174-2.174A2.174,2.174,0,0,1,578.174,109.652Zm91.3-13.043a2.174,2.174,0,1,1,2.174-2.174A2.174,2.174,0,0,1,669.478,96.609Zm-13.043,0a2.174,2.174,0,1,1,2.174-2.174A2.174,2.174,0,0,1,656.435,96.609Zm-13.044,0a2.174,2.174,0,1,1,2.174-2.174A2.174,2.174,0,0,1,643.391,96.609Zm-13.043,0a2.174,2.174,0,1,1,2.174-2.174A2.174,2.174,0,0,1,630.348,96.609Zm-13.044,0a2.174,2.174,0,1,1,2.174-2.174A2.174,2.174,0,0,1,617.3,96.609Zm-13.043,0a2.174,2.174,0,1,1,2.174-2.174A2.174,2.174,0,0,1,604.261,96.609Zm-13.044,0a2.174,2.174,0,1,1,2.174-2.174A2.174,2.174,0,0,1,591.217,96.609Zm-13.043,0a2.174,2.174,0,1,1,2.174-2.174A2.174,2.174,0,0,1,578.174,96.609Zm91.3-13.044a2.174,2.174,0,1,1,2.174-2.174A2.174,2.174,0,0,1,669.478,83.565Zm-13.043,0a2.174,2.174,0,1,1,2.174-2.174A2.174,2.174,0,0,1,656.435,83.565Zm-13.044,0a2.174,2.174,0,1,1,2.174-2.174A2.174,2.174,0,0,1,643.391,83.565Zm-13.043,0a2.174,2.174,0,1,1,2.174-2.174A2.174,2.174,0,0,1,630.348,83.565Zm-13.044,0a2.174,2.174,0,1,1,2.174-2.174A2.174,2.174,0,0,1,617.3,83.565Zm-13.043,0a2.174,2.174,0,1,1,2.174-2.174A2.174,2.174,0,0,1,604.261,83.565Zm-13.044,0a2.174,2.174,0,1,1,2.174-2.174A2.174,2.174,0,0,1,591.217,83.565Zm-13.043,0a2.174,2.174,0,1,1,2.174-2.174A2.174,2.174,0,0,1,578.174,83.565Zm91.3-13.044a2.174,2.174,0,1,1,2.174-2.174A2.174,2.174,0,0,1,669.478,70.522Zm-13.043,0a2.174,2.174,0,1,1,2.174-2.174A2.174,2.174,0,0,1,656.435,70.522Zm-13.044,0a2.174,2.174,0,1,1,2.174-2.174A2.174,2.174,0,0,1,643.391,70.522Zm-13.043,0a2.174,2.174,0,1,1,2.174-2.174A2.174,2.174,0,0,1,630.348,70.522Zm-13.044,0a2.174,2.174,0,1,1,2.174-2.174A2.174,2.174,0,0,1,617.3,70.522Zm-13.043,0a2.174,2.174,0,1,1,2.174-2.174A2.174,2.174,0,0,1,604.261,70.522Zm-13.044,0a2.174,2.174,0,1,1,2.174-2.174A2.174,2.174,0,0,1,591.217,70.522Zm-13.043,0a2.174,2.174,0,1,1,2.174-2.174A2.174,2.174,0,0,1,578.174,70.522Zm91.3-13.043a2.174,2.174,0,1,1,2.174-2.174A2.174,2.174,0,0,1,669.478,57.478Zm-13.043,0a2.174,2.174,0,1,1,2.174-2.174A2.174,2.174,0,0,1,656.435,57.478Zm-13.044,0a2.174,2.174,0,1,1,2.174-2.174A2.174,2.174,0,0,1,643.391,57.478Zm-13.043,0a2.174,2.174,0,1,1,2.174-2.174A2.174,2.174,0,0,1,630.348,57.478Zm-13.044,0a2.174,2.174,0,1,1,2.174-2.174A2.174,2.174,0,0,1,617.3,57.478Zm-13.043,0a2.174,2.174,0,1,1,2.174-2.174A2.174,2.174,0,0,1,604.261,57.478Zm-13.044,0a2.174,2.174,0,1,1,2.174-2.174A2.174,2.174,0,0,1,591.217,57.478Zm-13.043,0a2.174,2.174,0,1,1,2.174-2.174A2.174,2.174,0,0,1,578.174,57.478Zm91.3-13.043a2.174,2.174,0,1,1,2.174-2.174A2.174,2.174,0,0,1,669.478,44.435Zm-13.043,0a2.174,2.174,0,1,1,2.174-2.174A2.174,2.174,0,0,1,656.435,44.435Zm-13.044,0a2.174,2.174,0,1,1,2.174-2.174A2.174,2.174,0,0,1,643.391,44.435Zm-13.043,0a2.174,2.174,0,1,1,2.174-2.174A2.174,2.174,0,0,1,630.348,44.435Zm-13.044,0a2.174,2.174,0,1,1,2.174-2.174A2.174,2.174,0,0,1,617.3,44.435Zm-13.043,0a2.174,2.174,0,1,1,2.174-2.174A2.174,2.174,0,0,1,604.261,44.435Zm-13.044,0a2.174,2.174,0,1,1,2.174-2.174A2.174,2.174,0,0,1,591.217,44.435Zm-13.043,0a2.174,2.174,0,1,1,2.174-2.174A2.174,2.174,0,0,1,578.174,44.435Zm91.3-13.043a2.174,2.174,0,1,1,2.174-2.174A2.174,2.174,0,0,1,669.478,31.391Zm-13.043,0a2.174,2.174,0,1,1,2.174-2.174A2.174,2.174,0,0,1,656.435,31.391Zm-13.044,0a2.174,2.174,0,1,1,2.174-2.174A2.174,2.174,0,0,1,643.391,31.391Zm-13.043,0a2.174,2.174,0,1,1,2.174-2.174A2.174,2.174,0,0,1,630.348,31.391Zm-13.044,0a2.174,2.174,0,1,1,2.174-2.174A2.174,2.174,0,0,1,617.3,31.391Zm-13.043,0a2.174,2.174,0,1,1,2.174-2.174A2.174,2.174,0,0,1,604.261,31.391Zm-13.044,0a2.174,2.174,0,1,1,2.174-2.174A2.174,2.174,0,0,1,591.217,31.391Zm-13.043,0a2.174,2.174,0,1,1,2.174-2.174A2.174,2.174,0,0,1,578.174,31.391Zm91.3-13.044a2.174,2.174,0,1,1,2.174-2.174A2.174,2.174,0,0,1,669.478,18.348Zm-13.043,0a2.174,2.174,0,1,1,2.174-2.174A2.174,2.174,0,0,1,656.435,18.348Zm-13.044,0a2.174,2.174,0,1,1,2.174-2.174A2.174,2.174,0,0,1,643.391,18.348Zm-13.043,0a2.174,2.174,0,1,1,2.174-2.174A2.174,2.174,0,0,1,630.348,18.348Zm-13.044,0a2.174,2.174,0,1,1,2.174-2.174A2.174,2.174,0,0,1,617.3,18.348Zm-13.043,0a2.174,2.174,0,1,1,2.174-2.174A2.174,2.174,0,0,1,604.261,18.348Zm-13.044,0a2.174,2.174,0,1,1,2.174-2.174A2.174,2.174,0,0,1,591.217,18.348Zm-13.043,0a2.174,2.174,0,1,1,2.174-2.174A2.174,2.174,0,0,1,578.174,18.348Z"/></g></g></svg>