<svg xmlns="http://www.w3.org/2000/svg" width="159.88" height="159.88" viewBox="0 0 159.88 159.88"><defs><style>.a{fill:#008060;}</style></defs><g transform="matrix(0.966, -0.259, 0.259, 0.966, 0, 33.787)"><path class="a" d="M705.122,144.541a1.419,1.419,0,1,1,1.419-1.419A1.419,1.419,0,0,1,705.122,144.541Zm-8.513,0a1.419,1.419,0,1,1,1.419-1.419A1.419,1.419,0,0,1,696.609,144.541Zm-8.514,0a1.419,1.419,0,1,1,1.419-1.419A1.419,1.419,0,0,1,688.1,144.541Zm-8.513,0A1.419,1.419,0,1,1,681,143.122,1.419,1.419,0,0,1,679.582,144.541Zm-8.514,0a1.419,1.419,0,1,1,1.419-1.419A1.419,1.419,0,0,1,671.068,144.541Zm-8.513,0a1.419,1.419,0,1,1,1.419-1.419A1.419,1.419,0,0,1,662.555,144.541Zm-8.514,0a1.419,1.419,0,1,1,1.419-1.419A1.419,1.419,0,0,1,654.041,144.541Zm-8.513,0a1.419,1.419,0,1,1,1.419-1.419A1.419,1.419,0,0,1,645.528,144.541Zm59.595-8.513a1.419,1.419,0,1,1,1.419-1.419A1.419,1.419,0,0,1,705.122,136.028Zm-8.513,0a1.419,1.419,0,1,1,1.419-1.419A1.419,1.419,0,0,1,696.609,136.028Zm-8.514,0a1.419,1.419,0,1,1,1.419-1.419A1.42,1.42,0,0,1,688.1,136.028Zm-8.513,0A1.419,1.419,0,1,1,681,134.609,1.419,1.419,0,0,1,679.582,136.028Zm-8.514,0a1.419,1.419,0,1,1,1.419-1.419A1.42,1.42,0,0,1,671.068,136.028Zm-8.513,0a1.419,1.419,0,1,1,1.419-1.419A1.419,1.419,0,0,1,662.555,136.028Zm-8.514,0a1.419,1.419,0,1,1,1.419-1.419A1.42,1.42,0,0,1,654.041,136.028Zm-8.513,0a1.419,1.419,0,1,1,1.419-1.419A1.419,1.419,0,0,1,645.528,136.028Zm59.595-8.514a1.419,1.419,0,1,1,1.419-1.419A1.419,1.419,0,0,1,705.122,127.514Zm-8.513,0a1.419,1.419,0,1,1,1.419-1.419A1.419,1.419,0,0,1,696.609,127.514Zm-8.514,0a1.419,1.419,0,1,1,1.419-1.419A1.419,1.419,0,0,1,688.1,127.514Zm-8.513,0A1.419,1.419,0,1,1,681,126.1,1.419,1.419,0,0,1,679.582,127.514Zm-8.514,0a1.419,1.419,0,1,1,1.419-1.419A1.419,1.419,0,0,1,671.068,127.514Zm-8.513,0a1.419,1.419,0,1,1,1.419-1.419A1.419,1.419,0,0,1,662.555,127.514Zm-8.514,0a1.419,1.419,0,1,1,1.419-1.419A1.419,1.419,0,0,1,654.041,127.514Zm-8.513,0a1.419,1.419,0,1,1,1.419-1.419A1.419,1.419,0,0,1,645.528,127.514ZM705.122,119a1.419,1.419,0,1,1,1.419-1.419A1.419,1.419,0,0,1,705.122,119Zm-8.513,0a1.419,1.419,0,1,1,1.419-1.419A1.419,1.419,0,0,1,696.609,119Zm-8.514,0a1.419,1.419,0,1,1,1.419-1.419A1.42,1.42,0,0,1,688.1,119Zm-8.513,0A1.419,1.419,0,1,1,681,117.582,1.419,1.419,0,0,1,679.582,119Zm-8.514,0a1.419,1.419,0,1,1,1.419-1.419A1.42,1.42,0,0,1,671.068,119Zm-8.513,0a1.419,1.419,0,1,1,1.419-1.419A1.419,1.419,0,0,1,662.555,119Zm-8.514,0a1.419,1.419,0,1,1,1.419-1.419A1.42,1.42,0,0,1,654.041,119Zm-8.513,0a1.419,1.419,0,1,1,1.419-1.419A1.419,1.419,0,0,1,645.528,119Zm59.595-8.514a1.419,1.419,0,1,1,1.419-1.419A1.419,1.419,0,0,1,705.122,110.487Zm-8.513,0a1.419,1.419,0,1,1,1.419-1.419A1.419,1.419,0,0,1,696.609,110.487Zm-8.514,0a1.419,1.419,0,1,1,1.419-1.419A1.419,1.419,0,0,1,688.1,110.487Zm-8.513,0A1.419,1.419,0,1,1,681,109.068,1.419,1.419,0,0,1,679.582,110.487Zm-8.514,0a1.419,1.419,0,1,1,1.419-1.419A1.419,1.419,0,0,1,671.068,110.487Zm-8.513,0a1.419,1.419,0,1,1,1.419-1.419A1.419,1.419,0,0,1,662.555,110.487Zm-8.514,0a1.419,1.419,0,1,1,1.419-1.419A1.419,1.419,0,0,1,654.041,110.487Zm-8.513,0a1.419,1.419,0,1,1,1.419-1.419A1.419,1.419,0,0,1,645.528,110.487Zm59.595-8.513a1.419,1.419,0,1,1,1.419-1.419A1.419,1.419,0,0,1,705.122,101.974Zm-8.513,0a1.419,1.419,0,1,1,1.419-1.419A1.419,1.419,0,0,1,696.609,101.974Zm-8.514,0a1.419,1.419,0,1,1,1.419-1.419A1.42,1.42,0,0,1,688.1,101.974Zm-8.513,0A1.419,1.419,0,1,1,681,100.555,1.419,1.419,0,0,1,679.582,101.974Zm-8.514,0a1.419,1.419,0,1,1,1.419-1.419A1.42,1.42,0,0,1,671.068,101.974Zm-8.513,0a1.419,1.419,0,1,1,1.419-1.419A1.419,1.419,0,0,1,662.555,101.974Zm-8.514,0a1.419,1.419,0,1,1,1.419-1.419A1.42,1.42,0,0,1,654.041,101.974Zm-8.513,0a1.419,1.419,0,1,1,1.419-1.419A1.419,1.419,0,0,1,645.528,101.974Zm59.595-8.514a1.419,1.419,0,1,1,1.419-1.419A1.419,1.419,0,0,1,705.122,93.46Zm-8.513,0a1.419,1.419,0,1,1,1.419-1.419A1.419,1.419,0,0,1,696.609,93.46Zm-8.514,0a1.419,1.419,0,1,1,1.419-1.419A1.419,1.419,0,0,1,688.1,93.46Zm-8.513,0A1.419,1.419,0,1,1,681,92.041,1.419,1.419,0,0,1,679.582,93.46Zm-8.514,0a1.419,1.419,0,1,1,1.419-1.419A1.419,1.419,0,0,1,671.068,93.46Zm-8.513,0a1.419,1.419,0,1,1,1.419-1.419A1.419,1.419,0,0,1,662.555,93.46Zm-8.514,0a1.419,1.419,0,1,1,1.419-1.419A1.419,1.419,0,0,1,654.041,93.46Zm-8.513,0a1.419,1.419,0,1,1,1.419-1.419A1.419,1.419,0,0,1,645.528,93.46Zm59.595-8.513a1.419,1.419,0,1,1,1.419-1.419A1.419,1.419,0,0,1,705.122,84.947Zm-8.513,0a1.419,1.419,0,1,1,1.419-1.419A1.419,1.419,0,0,1,696.609,84.947Zm-8.514,0a1.419,1.419,0,1,1,1.419-1.419A1.42,1.42,0,0,1,688.1,84.947Zm-8.513,0A1.419,1.419,0,1,1,681,83.528,1.419,1.419,0,0,1,679.582,84.947Zm-8.514,0a1.419,1.419,0,1,1,1.419-1.419A1.42,1.42,0,0,1,671.068,84.947Zm-8.513,0a1.419,1.419,0,1,1,1.419-1.419A1.419,1.419,0,0,1,662.555,84.947Zm-8.514,0a1.419,1.419,0,1,1,1.419-1.419A1.42,1.42,0,0,1,654.041,84.947Zm-8.513,0a1.419,1.419,0,1,1,1.419-1.419A1.419,1.419,0,0,1,645.528,84.947Zm59.595-8.514a1.419,1.419,0,1,1,1.419-1.419A1.419,1.419,0,0,1,705.122,76.433Zm-8.513,0a1.419,1.419,0,1,1,1.419-1.419A1.419,1.419,0,0,1,696.609,76.433Zm-8.514,0a1.419,1.419,0,1,1,1.419-1.419A1.419,1.419,0,0,1,688.1,76.433Zm-8.513,0A1.419,1.419,0,1,1,681,75.014,1.419,1.419,0,0,1,679.582,76.433Zm-8.514,0a1.419,1.419,0,1,1,1.419-1.419A1.419,1.419,0,0,1,671.068,76.433Zm-8.513,0a1.419,1.419,0,1,1,1.419-1.419A1.419,1.419,0,0,1,662.555,76.433Zm-8.514,0a1.419,1.419,0,1,1,1.419-1.419A1.419,1.419,0,0,1,654.041,76.433Zm-8.513,0a1.419,1.419,0,1,1,1.419-1.419A1.419,1.419,0,0,1,645.528,76.433Zm59.595-8.513a1.419,1.419,0,1,1,1.419-1.419A1.419,1.419,0,0,1,705.122,67.919Zm-8.513,0a1.419,1.419,0,1,1,1.419-1.419A1.419,1.419,0,0,1,696.609,67.919Zm-8.514,0a1.419,1.419,0,1,1,1.419-1.419A1.419,1.419,0,0,1,688.1,67.919Zm-8.513,0A1.419,1.419,0,1,1,681,66.5,1.419,1.419,0,0,1,679.582,67.919Zm-8.514,0a1.419,1.419,0,1,1,1.419-1.419A1.419,1.419,0,0,1,671.068,67.919Zm-8.513,0a1.419,1.419,0,1,1,1.419-1.419A1.419,1.419,0,0,1,662.555,67.919Zm-8.514,0A1.419,1.419,0,1,1,655.46,66.5,1.419,1.419,0,0,1,654.041,67.919Zm-8.513,0a1.419,1.419,0,1,1,1.419-1.419A1.419,1.419,0,0,1,645.528,67.919Zm59.595-8.514a1.419,1.419,0,1,1,1.419-1.419A1.419,1.419,0,0,1,705.122,59.406Zm-8.513,0a1.419,1.419,0,1,1,1.419-1.419A1.419,1.419,0,0,1,696.609,59.406Zm-8.514,0a1.419,1.419,0,1,1,1.419-1.419A1.419,1.419,0,0,1,688.1,59.406Zm-8.513,0A1.419,1.419,0,1,1,681,57.987,1.419,1.419,0,0,1,679.582,59.406Zm-8.514,0a1.419,1.419,0,1,1,1.419-1.419A1.419,1.419,0,0,1,671.068,59.406Zm-8.513,0a1.419,1.419,0,1,1,1.419-1.419A1.419,1.419,0,0,1,662.555,59.406Zm-8.514,0a1.419,1.419,0,1,1,1.419-1.419A1.419,1.419,0,0,1,654.041,59.406Zm-8.513,0a1.419,1.419,0,1,1,1.419-1.419A1.419,1.419,0,0,1,645.528,59.406Zm59.595-8.514a1.419,1.419,0,1,1,1.419-1.419A1.419,1.419,0,0,1,705.122,50.892Zm-8.513,0a1.419,1.419,0,1,1,1.419-1.419A1.419,1.419,0,0,1,696.609,50.892Zm-8.514,0a1.419,1.419,0,1,1,1.419-1.419A1.419,1.419,0,0,1,688.1,50.892Zm-8.513,0A1.419,1.419,0,1,1,681,49.473,1.419,1.419,0,0,1,679.582,50.892Zm-8.514,0a1.419,1.419,0,1,1,1.419-1.419A1.419,1.419,0,0,1,671.068,50.892Zm-8.513,0a1.419,1.419,0,1,1,1.419-1.419A1.419,1.419,0,0,1,662.555,50.892Zm-8.514,0a1.419,1.419,0,1,1,1.419-1.419A1.419,1.419,0,0,1,654.041,50.892Zm-8.513,0a1.419,1.419,0,1,1,1.419-1.419A1.419,1.419,0,0,1,645.528,50.892Zm59.595-8.514a1.419,1.419,0,1,1,1.419-1.419A1.419,1.419,0,0,1,705.122,42.379Zm-8.513,0a1.419,1.419,0,1,1,1.419-1.419A1.419,1.419,0,0,1,696.609,42.379Zm-8.514,0a1.419,1.419,0,1,1,1.419-1.419A1.419,1.419,0,0,1,688.1,42.379Zm-8.513,0A1.419,1.419,0,1,1,681,40.96,1.419,1.419,0,0,1,679.582,42.379Zm-8.514,0a1.419,1.419,0,1,1,1.419-1.419A1.419,1.419,0,0,1,671.068,42.379Zm-8.513,0a1.419,1.419,0,1,1,1.419-1.419A1.419,1.419,0,0,1,662.555,42.379Zm-8.514,0a1.419,1.419,0,1,1,1.419-1.419A1.419,1.419,0,0,1,654.041,42.379Zm-8.513,0a1.419,1.419,0,1,1,1.419-1.419A1.419,1.419,0,0,1,645.528,42.379Zm59.595-8.514a1.419,1.419,0,1,1,1.419-1.419A1.419,1.419,0,0,1,705.122,33.865Zm-8.513,0a1.419,1.419,0,1,1,1.419-1.419A1.419,1.419,0,0,1,696.609,33.865Zm-8.514,0a1.419,1.419,0,1,1,1.419-1.419A1.419,1.419,0,0,1,688.1,33.865Zm-8.513,0A1.419,1.419,0,1,1,681,32.446,1.419,1.419,0,0,1,679.582,33.865Zm-8.514,0a1.419,1.419,0,1,1,1.419-1.419A1.419,1.419,0,0,1,671.068,33.865Zm-8.513,0a1.419,1.419,0,1,1,1.419-1.419A1.419,1.419,0,0,1,662.555,33.865Zm-8.514,0a1.419,1.419,0,1,1,1.419-1.419A1.419,1.419,0,0,1,654.041,33.865Zm-8.513,0a1.419,1.419,0,1,1,1.419-1.419A1.419,1.419,0,0,1,645.528,33.865Zm59.595-8.514a1.419,1.419,0,1,1,1.419-1.419A1.419,1.419,0,0,1,705.122,25.351Zm-8.513,0a1.419,1.419,0,1,1,1.419-1.419A1.419,1.419,0,0,1,696.609,25.351Zm-8.514,0a1.419,1.419,0,1,1,1.419-1.419A1.419,1.419,0,0,1,688.1,25.351Zm-8.513,0A1.419,1.419,0,1,1,681,23.933,1.419,1.419,0,0,1,679.582,25.351Zm-8.514,0a1.419,1.419,0,1,1,1.419-1.419A1.419,1.419,0,0,1,671.068,25.351Zm-8.513,0a1.419,1.419,0,1,1,1.419-1.419A1.419,1.419,0,0,1,662.555,25.351Zm-8.514,0a1.419,1.419,0,1,1,1.419-1.419A1.419,1.419,0,0,1,654.041,25.351Zm-8.513,0a1.419,1.419,0,1,1,1.419-1.419A1.419,1.419,0,0,1,645.528,25.351Zm59.595-8.514a1.419,1.419,0,1,1,1.419-1.419A1.419,1.419,0,0,1,705.122,16.838Zm-8.513,0a1.419,1.419,0,1,1,1.419-1.419A1.419,1.419,0,0,1,696.609,16.838Zm-8.514,0a1.419,1.419,0,1,1,1.419-1.419A1.419,1.419,0,0,1,688.1,16.838Zm-8.513,0A1.419,1.419,0,1,1,681,15.419,1.419,1.419,0,0,1,679.582,16.838Zm-8.514,0a1.419,1.419,0,1,1,1.419-1.419A1.419,1.419,0,0,1,671.068,16.838Zm-8.513,0a1.419,1.419,0,1,1,1.419-1.419A1.419,1.419,0,0,1,662.555,16.838Zm-8.514,0a1.419,1.419,0,1,1,1.419-1.419A1.419,1.419,0,0,1,654.041,16.838Zm-8.513,0a1.419,1.419,0,1,1,1.419-1.419A1.419,1.419,0,0,1,645.528,16.838Zm-8.514,127.7a1.419,1.419,0,1,1,1.419-1.419A1.419,1.419,0,0,1,637.014,144.541Zm-8.513,0a1.419,1.419,0,1,1,1.419-1.419A1.419,1.419,0,0,1,628.5,144.541Zm-8.514,0a1.419,1.419,0,1,1,1.419-1.419A1.419,1.419,0,0,1,619.987,144.541Zm-8.513,0a1.419,1.419,0,1,1,1.419-1.419A1.419,1.419,0,0,1,611.473,144.541Zm-8.514,0a1.419,1.419,0,1,1,1.419-1.419A1.419,1.419,0,0,1,602.959,144.541Zm-8.513,0a1.419,1.419,0,1,1,1.419-1.419A1.419,1.419,0,0,1,594.446,144.541Zm-8.514,0a1.419,1.419,0,1,1,1.419-1.419A1.419,1.419,0,0,1,585.932,144.541Zm-8.513,0a1.419,1.419,0,1,1,1.419-1.419A1.419,1.419,0,0,1,577.419,144.541Zm59.595-8.513a1.419,1.419,0,1,1,1.419-1.419A1.42,1.42,0,0,1,637.014,136.028Zm-8.513,0a1.419,1.419,0,1,1,1.419-1.419A1.419,1.419,0,0,1,628.5,136.028Zm-8.514,0a1.419,1.419,0,1,1,1.419-1.419A1.42,1.42,0,0,1,619.987,136.028Zm-8.513,0a1.419,1.419,0,1,1,1.419-1.419A1.419,1.419,0,0,1,611.473,136.028Zm-8.514,0a1.419,1.419,0,1,1,1.419-1.419A1.42,1.42,0,0,1,602.959,136.028Zm-8.513,0a1.419,1.419,0,1,1,1.419-1.419A1.419,1.419,0,0,1,594.446,136.028Zm-8.514,0a1.419,1.419,0,1,1,1.419-1.419A1.42,1.42,0,0,1,585.932,136.028Zm-8.513,0a1.419,1.419,0,1,1,1.419-1.419A1.419,1.419,0,0,1,577.419,136.028Zm59.595-8.514a1.419,1.419,0,1,1,1.419-1.419A1.419,1.419,0,0,1,637.014,127.514Zm-8.513,0a1.419,1.419,0,1,1,1.419-1.419A1.419,1.419,0,0,1,628.5,127.514Zm-8.514,0a1.419,1.419,0,1,1,1.419-1.419A1.419,1.419,0,0,1,619.987,127.514Zm-8.513,0a1.419,1.419,0,1,1,1.419-1.419A1.419,1.419,0,0,1,611.473,127.514Zm-8.514,0a1.419,1.419,0,1,1,1.419-1.419A1.419,1.419,0,0,1,602.959,127.514Zm-8.513,0a1.419,1.419,0,1,1,1.419-1.419A1.419,1.419,0,0,1,594.446,127.514Zm-8.514,0a1.419,1.419,0,1,1,1.419-1.419A1.419,1.419,0,0,1,585.932,127.514Zm-8.513,0a1.419,1.419,0,1,1,1.419-1.419A1.419,1.419,0,0,1,577.419,127.514ZM637.014,119a1.419,1.419,0,1,1,1.419-1.419A1.42,1.42,0,0,1,637.014,119Zm-8.513,0a1.419,1.419,0,1,1,1.419-1.419A1.419,1.419,0,0,1,628.5,119Zm-8.514,0a1.419,1.419,0,1,1,1.419-1.419A1.42,1.42,0,0,1,619.987,119Zm-8.513,0a1.419,1.419,0,1,1,1.419-1.419A1.419,1.419,0,0,1,611.473,119Zm-8.514,0a1.419,1.419,0,1,1,1.419-1.419A1.42,1.42,0,0,1,602.959,119Zm-8.513,0a1.419,1.419,0,1,1,1.419-1.419A1.419,1.419,0,0,1,594.446,119Zm-8.514,0a1.419,1.419,0,1,1,1.419-1.419A1.42,1.42,0,0,1,585.932,119Zm-8.513,0a1.419,1.419,0,1,1,1.419-1.419A1.419,1.419,0,0,1,577.419,119Zm59.595-8.514a1.419,1.419,0,1,1,1.419-1.419A1.419,1.419,0,0,1,637.014,110.487Zm-8.513,0a1.419,1.419,0,1,1,1.419-1.419A1.419,1.419,0,0,1,628.5,110.487Zm-8.514,0a1.419,1.419,0,1,1,1.419-1.419A1.419,1.419,0,0,1,619.987,110.487Zm-8.513,0a1.419,1.419,0,1,1,1.419-1.419A1.419,1.419,0,0,1,611.473,110.487Zm-8.514,0a1.419,1.419,0,1,1,1.419-1.419A1.419,1.419,0,0,1,602.959,110.487Zm-8.513,0a1.419,1.419,0,1,1,1.419-1.419A1.419,1.419,0,0,1,594.446,110.487Zm-8.514,0a1.419,1.419,0,1,1,1.419-1.419A1.419,1.419,0,0,1,585.932,110.487Zm-8.513,0a1.419,1.419,0,1,1,1.419-1.419A1.419,1.419,0,0,1,577.419,110.487Zm59.595-8.513a1.419,1.419,0,1,1,1.419-1.419A1.42,1.42,0,0,1,637.014,101.974Zm-8.513,0a1.419,1.419,0,1,1,1.419-1.419A1.419,1.419,0,0,1,628.5,101.974Zm-8.514,0a1.419,1.419,0,1,1,1.419-1.419A1.42,1.42,0,0,1,619.987,101.974Zm-8.513,0a1.419,1.419,0,1,1,1.419-1.419A1.419,1.419,0,0,1,611.473,101.974Zm-8.514,0a1.419,1.419,0,1,1,1.419-1.419A1.42,1.42,0,0,1,602.959,101.974Zm-8.513,0a1.419,1.419,0,1,1,1.419-1.419A1.419,1.419,0,0,1,594.446,101.974Zm-8.514,0a1.419,1.419,0,1,1,1.419-1.419A1.42,1.42,0,0,1,585.932,101.974Zm-8.513,0a1.419,1.419,0,1,1,1.419-1.419A1.419,1.419,0,0,1,577.419,101.974Zm59.595-8.514a1.419,1.419,0,1,1,1.419-1.419A1.419,1.419,0,0,1,637.014,93.46Zm-8.513,0a1.419,1.419,0,1,1,1.419-1.419A1.419,1.419,0,0,1,628.5,93.46Zm-8.514,0a1.419,1.419,0,1,1,1.419-1.419A1.419,1.419,0,0,1,619.987,93.46Zm-8.513,0a1.419,1.419,0,1,1,1.419-1.419A1.419,1.419,0,0,1,611.473,93.46Zm-8.514,0a1.419,1.419,0,1,1,1.419-1.419A1.419,1.419,0,0,1,602.959,93.46Zm-8.513,0a1.419,1.419,0,1,1,1.419-1.419A1.419,1.419,0,0,1,594.446,93.46Zm-8.514,0a1.419,1.419,0,1,1,1.419-1.419A1.419,1.419,0,0,1,585.932,93.46Zm-8.513,0a1.419,1.419,0,1,1,1.419-1.419A1.419,1.419,0,0,1,577.419,93.46Zm59.595-8.513a1.419,1.419,0,1,1,1.419-1.419A1.42,1.42,0,0,1,637.014,84.947Zm-8.513,0a1.419,1.419,0,1,1,1.419-1.419A1.419,1.419,0,0,1,628.5,84.947Zm-8.514,0a1.419,1.419,0,1,1,1.419-1.419A1.42,1.42,0,0,1,619.987,84.947Zm-8.513,0a1.419,1.419,0,1,1,1.419-1.419A1.419,1.419,0,0,1,611.473,84.947Zm-8.514,0a1.419,1.419,0,1,1,1.419-1.419A1.42,1.42,0,0,1,602.959,84.947Zm-8.513,0a1.419,1.419,0,1,1,1.419-1.419A1.419,1.419,0,0,1,594.446,84.947Zm-8.514,0a1.419,1.419,0,1,1,1.419-1.419A1.42,1.42,0,0,1,585.932,84.947Zm-8.513,0a1.419,1.419,0,1,1,1.419-1.419A1.419,1.419,0,0,1,577.419,84.947Zm59.595-8.514a1.419,1.419,0,1,1,1.419-1.419A1.419,1.419,0,0,1,637.014,76.433Zm-8.513,0a1.419,1.419,0,1,1,1.419-1.419A1.419,1.419,0,0,1,628.5,76.433Zm-8.514,0a1.419,1.419,0,1,1,1.419-1.419A1.419,1.419,0,0,1,619.987,76.433Zm-8.513,0a1.419,1.419,0,1,1,1.419-1.419A1.419,1.419,0,0,1,611.473,76.433Zm-8.514,0a1.419,1.419,0,1,1,1.419-1.419A1.419,1.419,0,0,1,602.959,76.433Zm-8.513,0a1.419,1.419,0,1,1,1.419-1.419A1.419,1.419,0,0,1,594.446,76.433Zm-8.514,0a1.419,1.419,0,1,1,1.419-1.419A1.419,1.419,0,0,1,585.932,76.433Zm-8.513,0a1.419,1.419,0,1,1,1.419-1.419A1.419,1.419,0,0,1,577.419,76.433Zm59.595-8.513a1.419,1.419,0,1,1,1.419-1.419A1.419,1.419,0,0,1,637.014,67.919Zm-8.513,0a1.419,1.419,0,1,1,1.419-1.419A1.419,1.419,0,0,1,628.5,67.919Zm-8.514,0a1.419,1.419,0,1,1,1.419-1.419A1.419,1.419,0,0,1,619.987,67.919Zm-8.513,0a1.419,1.419,0,1,1,1.419-1.419A1.419,1.419,0,0,1,611.473,67.919Zm-8.514,0a1.419,1.419,0,1,1,1.419-1.419A1.419,1.419,0,0,1,602.959,67.919Zm-8.513,0a1.419,1.419,0,1,1,1.419-1.419A1.419,1.419,0,0,1,594.446,67.919Zm-8.514,0a1.419,1.419,0,1,1,1.419-1.419A1.419,1.419,0,0,1,585.932,67.919Zm-8.513,0a1.419,1.419,0,1,1,1.419-1.419A1.419,1.419,0,0,1,577.419,67.919Zm59.595-8.514a1.419,1.419,0,1,1,1.419-1.419A1.419,1.419,0,0,1,637.014,59.406Zm-8.513,0a1.419,1.419,0,1,1,1.419-1.419A1.419,1.419,0,0,1,628.5,59.406Zm-8.514,0a1.419,1.419,0,1,1,1.419-1.419A1.419,1.419,0,0,1,619.987,59.406Zm-8.513,0a1.419,1.419,0,1,1,1.419-1.419A1.419,1.419,0,0,1,611.473,59.406Zm-8.514,0a1.419,1.419,0,1,1,1.419-1.419A1.419,1.419,0,0,1,602.959,59.406Zm-8.513,0a1.419,1.419,0,1,1,1.419-1.419A1.419,1.419,0,0,1,594.446,59.406Zm-8.514,0a1.419,1.419,0,1,1,1.419-1.419A1.419,1.419,0,0,1,585.932,59.406Zm-8.513,0a1.419,1.419,0,1,1,1.419-1.419A1.419,1.419,0,0,1,577.419,59.406Zm59.595-8.514a1.419,1.419,0,1,1,1.419-1.419A1.419,1.419,0,0,1,637.014,50.892Zm-8.513,0a1.419,1.419,0,1,1,1.419-1.419A1.419,1.419,0,0,1,628.5,50.892Zm-8.514,0a1.419,1.419,0,1,1,1.419-1.419A1.419,1.419,0,0,1,619.987,50.892Zm-8.513,0a1.419,1.419,0,1,1,1.419-1.419A1.419,1.419,0,0,1,611.473,50.892Zm-8.514,0a1.419,1.419,0,1,1,1.419-1.419A1.419,1.419,0,0,1,602.959,50.892Zm-8.513,0a1.419,1.419,0,1,1,1.419-1.419A1.419,1.419,0,0,1,594.446,50.892Zm-8.514,0a1.419,1.419,0,1,1,1.419-1.419A1.419,1.419,0,0,1,585.932,50.892Zm-8.513,0a1.419,1.419,0,1,1,1.419-1.419A1.419,1.419,0,0,1,577.419,50.892Zm59.595-8.514a1.419,1.419,0,1,1,1.419-1.419A1.419,1.419,0,0,1,637.014,42.379Zm-8.513,0a1.419,1.419,0,1,1,1.419-1.419A1.419,1.419,0,0,1,628.5,42.379Zm-8.514,0a1.419,1.419,0,1,1,1.419-1.419A1.419,1.419,0,0,1,619.987,42.379Zm-8.513,0a1.419,1.419,0,1,1,1.419-1.419A1.419,1.419,0,0,1,611.473,42.379Zm-8.514,0a1.419,1.419,0,1,1,1.419-1.419A1.419,1.419,0,0,1,602.959,42.379Zm-8.513,0a1.419,1.419,0,1,1,1.419-1.419A1.419,1.419,0,0,1,594.446,42.379Zm-8.514,0a1.419,1.419,0,1,1,1.419-1.419A1.419,1.419,0,0,1,585.932,42.379Zm-8.513,0a1.419,1.419,0,1,1,1.419-1.419A1.419,1.419,0,0,1,577.419,42.379Zm59.595-8.514a1.419,1.419,0,1,1,1.419-1.419A1.419,1.419,0,0,1,637.014,33.865Zm-8.513,0a1.419,1.419,0,1,1,1.419-1.419A1.419,1.419,0,0,1,628.5,33.865Zm-8.514,0a1.419,1.419,0,1,1,1.419-1.419A1.419,1.419,0,0,1,619.987,33.865Zm-8.513,0a1.419,1.419,0,1,1,1.419-1.419A1.419,1.419,0,0,1,611.473,33.865Zm-8.514,0a1.419,1.419,0,1,1,1.419-1.419A1.419,1.419,0,0,1,602.959,33.865Zm-8.513,0a1.419,1.419,0,1,1,1.419-1.419A1.419,1.419,0,0,1,594.446,33.865Zm-8.514,0a1.419,1.419,0,1,1,1.419-1.419A1.419,1.419,0,0,1,585.932,33.865Zm-8.513,0a1.419,1.419,0,1,1,1.419-1.419A1.419,1.419,0,0,1,577.419,33.865Zm59.595-8.514a1.419,1.419,0,1,1,1.419-1.419A1.419,1.419,0,0,1,637.014,25.351Zm-8.513,0a1.419,1.419,0,1,1,1.419-1.419A1.419,1.419,0,0,1,628.5,25.351Zm-8.514,0a1.419,1.419,0,1,1,1.419-1.419A1.419,1.419,0,0,1,619.987,25.351Zm-8.513,0a1.419,1.419,0,1,1,1.419-1.419A1.419,1.419,0,0,1,611.473,25.351Zm-8.514,0a1.419,1.419,0,1,1,1.419-1.419A1.419,1.419,0,0,1,602.959,25.351Zm-8.513,0a1.419,1.419,0,1,1,1.419-1.419A1.419,1.419,0,0,1,594.446,25.351Zm-8.514,0a1.419,1.419,0,1,1,1.419-1.419A1.419,1.419,0,0,1,585.932,25.351Zm-8.513,0a1.419,1.419,0,1,1,1.419-1.419A1.419,1.419,0,0,1,577.419,25.351Zm59.595-8.514a1.419,1.419,0,1,1,1.419-1.419A1.419,1.419,0,0,1,637.014,16.838Zm-8.513,0a1.419,1.419,0,1,1,1.419-1.419A1.419,1.419,0,0,1,628.5,16.838Zm-8.514,0a1.419,1.419,0,1,1,1.419-1.419A1.419,1.419,0,0,1,619.987,16.838Zm-8.513,0a1.419,1.419,0,1,1,1.419-1.419A1.419,1.419,0,0,1,611.473,16.838Zm-8.514,0a1.419,1.419,0,1,1,1.419-1.419A1.419,1.419,0,0,1,602.959,16.838Zm-8.513,0a1.419,1.419,0,1,1,1.419-1.419A1.419,1.419,0,0,1,594.446,16.838Zm-8.514,0a1.419,1.419,0,1,1,1.419-1.419A1.419,1.419,0,0,1,585.932,16.838Zm-8.513,0a1.419,1.419,0,1,1,1.419-1.419A1.419,1.419,0,0,1,577.419,16.838Z" transform="translate(-576 -14)"/></g></svg>