<svg xmlns="http://www.w3.org/2000/svg" width="55" height="61.112" viewBox="0 0 55 61.112"><defs><style>.a{fill:#fff;}</style></defs><g transform="translate(-2.633 -1.984)"><g transform="translate(2.633 1.984)"><path class="a" d="M20.234,290.253a11.225,11.225,0,1,0,11.225,11.23A11.21,11.21,0,0,0,20.234,290.253Zm6.626,6.531a1.247,1.247,0,0,1,.9,2.146l-8.655,8.652a1.247,1.247,0,0,1-1.759,0l-5.478-5.476a1.247,1.247,0,1,1,1.759-1.769l4.594,4.6,7.78-7.78a1.247,1.247,0,0,1,.855-.378Z" transform="translate(21.049 -251.59)"/><path class="a" d="M35.223,282.051a1.247,1.247,0,0,0-.882.368L3,313.75a1.247,1.247,0,0,0,0,1.769l21.166,21.166a1.247,1.247,0,0,0,1.768,0l4.285-4.287c0-.152-.022-.3-.022-.453A13.743,13.743,0,0,1,43.916,318.22c.155,0,.3.019.458.024l12.9-12.9a1.248,1.248,0,0,0,.36-.884V283.295a1.247,1.247,0,0,0-1.242-1.242Zm8.711,8.713a4.976,4.976,0,0,1,3.52,1.469v.009a4.949,4.949,0,1,1-3.52-1.476Z" transform="translate(-2.633 -282.051)"/></g></g></svg>