<svg xmlns="http://www.w3.org/2000/svg" width="60" height="58.457" viewBox="0 0 60 58.457"><defs><style>.a{fill:#fff;}</style></defs><g transform="translate(-150 -159)"><g transform="translate(150 159)"><path class="a" d="M151.714,380h56.571A1.719,1.719,0,0,1,210,381.714V417.8a1.719,1.719,0,0,1-1.714,1.714H151.714A1.719,1.719,0,0,1,150,417.8V381.714A1.719,1.719,0,0,1,151.714,380Zm45.686,3.429v6.257h9.171v-6.257Zm-3.429,0H153.429v6.257h40.543Z" transform="translate(-150 -361.057)"/><path class="a" d="M153.429,164.4h22.114a1.693,1.693,0,0,1,1.543,1.029L180,170.4l2.914-5.143a1.833,1.833,0,0,1,1.543-.771l22.114-.086v-1.971H153.429Zm21.171,3.429H151.714A1.666,1.666,0,0,1,150,166.114v-5.4A1.719,1.719,0,0,1,151.714,159h56.571A1.719,1.719,0,0,1,210,160.714v5.4a1.666,1.666,0,0,1-1.714,1.714H185.4c-.686,1.2-3.771,7.029-4.543,7.457a1.6,1.6,0,0,1-2.314-.6Z" transform="translate(-150 -159)"/></g></g></svg>