<svg xmlns="http://www.w3.org/2000/svg" width="66.038" height="53.52" viewBox="0 0 66.038 53.52"><defs><style>.a{fill:#fff;}</style></defs><g transform="translate(-1.2 -10.4)"><g transform="translate(1.2 10.4)"><path class="a" d="M38.482,45.719h4.736v7.849H6.072A4.851,4.851,0,0,1,1.2,48.7V45.719H5.327V14.8a4.389,4.389,0,0,1,4.4-4.4H55.465a4.389,4.389,0,0,1,4.4,4.4V26.639H53.841V16.422H11.349v29.3H26.708v.271A1.675,1.675,0,0,0,28.4,47.682h8.458a1.675,1.675,0,0,0,1.692-1.692v-.271ZM63.719,31.781H51.811a3.6,3.6,0,0,0-3.518,3.586V60.334a3.552,3.552,0,0,0,3.518,3.586H63.719a3.6,3.6,0,0,0,3.518-3.586V35.367A3.552,3.552,0,0,0,63.719,31.781Z" transform="translate(-1.2 -10.4)"/></g></g></svg>