<svg xmlns="http://www.w3.org/2000/svg" width="60.137" height="54.276" viewBox="0 0 60.137 54.276"><defs><style>.a{fill:#fff;fill-rule:evenodd;}</style></defs><path class="a" d="M3.267,16.347l43.9-9.957-.608-2.684a1.426,1.426,0,0,0-1.7-1.075L3.72,11.9a1.423,1.423,0,0,0-1.075,1.7c.21.913.412,1.839.622,2.751h0ZM2.9,9.466,44.569.09a3.7,3.7,0,0,1,4.414,2.792l4.367,19.3H50.741l-1.981-8.74L4.856,23.4,7.573,35.383l.243,1.061a.794.794,0,0,0,.953.6l.324-.074v2.555l-.047.014a3.084,3.084,0,0,1-3.67-2.319L.1,13.887A3.688,3.688,0,0,1,2.9,9.467h0ZM13.718,22.877a3.7,3.7,0,0,0-3.691,3.7V50.586a3.7,3.7,0,0,0,3.691,3.691H56.44a3.706,3.706,0,0,0,3.7-3.691V26.575a3.707,3.707,0,0,0-3.7-3.7H13.718ZM55.541,33.625V28.738a.563.563,0,0,0-.568-.568H44.042a.571.571,0,0,0-.568.568v4.887a.571.571,0,0,0,.568.568H54.973a.571.571,0,0,0,.568-.568ZM47.483,48.443a.573.573,0,0,1-.575-.568V46.739a.573.573,0,0,1,.575-.568h7.483a.571.571,0,0,1,.568.568v1.136a.571.571,0,0,1-.568.568Zm-10.444,0a.571.571,0,0,1-.568-.568V46.746a.567.567,0,0,1,.568-.568h7.49a.571.571,0,0,1,.568.568v1.129a.571.571,0,0,1-.568.568Zm-10.437,0a.571.571,0,0,1-.568-.568V46.746a.567.567,0,0,1,.568-.568h7.49a.571.571,0,0,1,.568.568v1.129a.571.571,0,0,1-.568.568Zm-10.437,0a.571.571,0,0,1-.568-.568V46.746a.567.567,0,0,1,.568-.568h7.49a.571.571,0,0,1,.568.568v1.129a.571.571,0,0,1-.568.568Z" transform="translate(0 0)"/></svg>