<svg xmlns="http://www.w3.org/2000/svg" width="60" height="60" viewBox="0 0 60 60"><defs><style>.a{fill:#fff;}</style></defs><g transform="translate(-0.529 -0.53)"><g transform="translate(0.529 0.53)"><path class="a" d="M32.672,289.063A27.872,27.872,0,0,0,5.7,309.951l4.148,1.076a23.571,23.571,0,1,1,28.719,28.715l1.071,4.148a27.856,27.856,0,0,0-6.968-54.827ZM41.549,305.1l-6.734,11.221v4.88h8.571v4.286h4.286v-4.286h2.143V316.92H47.672v-4.286H43.386v4.286h-3.93l5.767-9.614Zm-17.448,1.1a6.462,6.462,0,0,0-6.429,6.429h4.286a2.093,2.093,0,0,1,2.143-2.143h2.143a2.143,2.143,0,1,1,0,4.286H24.1a6.462,6.462,0,0,0-6.429,6.429v4.286h15v-4.286H21.958a2.093,2.093,0,0,1,2.143-2.143h2.143a6.429,6.429,0,0,0,0-12.857ZM.529,316.92v2.143a30.033,30.033,0,0,0,30,30h2.143v-9.894L21.535,333.6l-5.889,5.888a24.941,24.941,0,0,1-5.541-5.541l5.889-5.889L10.423,316.92Z" transform="translate(-0.529 -289.063)"/></g></g></svg>