<svg xmlns="http://www.w3.org/2000/svg" width="60.137" height="60.137" viewBox="0 0 60.137 60.137"><defs><style>.a{fill:#fff;}</style></defs><g transform="translate(14.858 47.755)"><circle class="a" cx="6.191" cy="6.191" r="6.191" transform="translate(25.383 0)"/><ellipse class="a" cx="6.5" cy="6.191" rx="6.5" ry="6.191" transform="translate(0 0)"/></g><g transform="translate(0 5.011)"><path class="a" d="M51.367,42.091H22.449a8.792,8.792,0,0,1-8.6-7.049L7.743,4.506H1.253A1.253,1.253,0,1,1,1.253,2H8.77A1.253,1.253,0,0,1,10,3.007l6.309,31.542a6.279,6.279,0,0,0,6.142,5.036H51.367a1.253,1.253,0,0,1,0,2.506Z" transform="translate(0 -2)"/></g><path class="a" d="M49.033,20.734a1.242,1.242,0,0,0-1.215-.033,16.05,16.05,0,0,1-7.485,1.839c-8.98,0-16.277-6.79-16.265-15.976,0-.018.013-.258.015-.273a1.252,1.252,0,0,0-.366-.922A1.272,1.272,0,0,0,22.793,5H5.215A1.255,1.255,0,0,0,4.023,6.484L7.781,26.529a1.249,1.249,0,0,0,1.23,1.022H43.425a6.27,6.27,0,0,0,6.214-5.488c.008-.063.008-.221.008-.283A1.254,1.254,0,0,0,49.033,20.734Z" transform="translate(6.023 7.528)"/><path class="a" d="M26.781,0A13.781,13.781,0,1,0,40.563,13.781,13.8,13.8,0,0,0,26.781,0Zm8.4,9.657L25.163,19.68a1.258,1.258,0,0,1-1.774,0l-5.011-5.011A1.253,1.253,0,1,1,20.149,12.9l4.127,4.124,9.136-9.136a1.254,1.254,0,0,1,1.774,1.772Z" transform="translate(19.574)"/></svg>